<svg width="1em" height="1em" viewBox="0 0 60 60" fill="none" xmlns="http://www.w3.org/2000/svg">
<path d="M43.3429 16.6623C42.111 11.7192 39.1833 7.34297 35.0537 4.2934C34.6631 4.005 34.1129 4.08785 33.8245 4.47832C33.5361 4.86879 33.619 5.4191 34.0095 5.7075C37.5807 8.34492 40.1755 12.0593 41.4157 16.2708C40.3031 16.0968 39.1634 16.0056 38.0027 16.0056C25.8735 16.0056 16.0055 25.8735 16.0055 38.0029C16.0055 39.1553 16.0938 40.2945 16.2672 41.4135C12.3688 40.2608 8.85773 37.9259 6.27363 34.7416C3.36152 31.1532 1.75781 26.6272 1.75781 21.9973C1.75781 10.8371 10.8373 1.75781 21.9973 1.75781C25.2157 1.75781 28.2929 2.49105 31.1433 3.93727C31.5763 4.15688 32.1052 3.98402 32.3248 3.55113C32.5444 3.11824 32.3715 2.58926 31.9386 2.36965C28.8394 0.797227 25.4946 0 21.9973 0C9.86801 0 0 9.86789 0 21.9973C0 27.0293 1.74328 31.9487 4.90875 35.8493C7.91074 39.5484 12.0652 42.1931 16.6554 43.3407C17.3367 46.0812 18.5457 48.6689 20.2479 50.9911C20.5349 51.3826 21.0848 51.4673 21.4763 51.1804C21.8677 50.8934 21.9525 50.3434 21.6656 49.9519C20.2698 48.0476 19.2348 45.9491 18.5823 43.7298C18.621 43.7359 18.6599 43.7425 18.6986 43.7483C18.7429 43.755 18.7868 43.7582 18.8304 43.7582C19.258 43.7582 19.6329 43.4456 19.6984 43.0098C19.7706 42.5298 19.44 42.0821 18.96 42.01C18.6836 41.9684 18.4065 41.9188 18.1302 41.8655C17.8876 40.6045 17.7634 39.313 17.7634 38.0026C17.7634 26.8425 26.8429 17.7632 38.0029 17.7632C39.3241 17.7632 40.6157 17.892 41.867 18.1348C41.9198 18.4091 41.9689 18.6841 42.0101 18.9584C42.0756 19.3942 42.4505 19.7068 42.8782 19.7068C42.9217 19.7068 42.9656 19.7036 43.0099 19.697C43.4899 19.6249 43.8206 19.1773 43.7486 18.6973C43.7432 18.6616 43.7371 18.6259 43.7314 18.5902C52.1101 21.0672 58.2422 28.8316 58.2422 38.0027C58.2422 49.1629 49.1627 58.2422 38.0027 58.2422C32.6925 58.2422 27.6744 56.2009 23.873 52.4941C23.5254 52.1552 22.969 52.1623 22.6302 52.5098C22.2913 52.8574 22.2983 53.4138 22.6459 53.7527C26.7775 57.7813 32.2314 60 38.0027 60C50.132 60 60 50.1321 60 38.0027C60 27.7146 52.9 19.0547 43.3429 16.6623Z" fill="black"/>
<path d="M25.7274 42.8049C25.6623 42.3239 25.2198 41.9871 24.7385 42.0519C23.8753 42.1689 22.993 42.2309 22.116 42.236C21.6306 42.239 21.2394 42.6347 21.2422 43.1201C21.245 43.6037 21.6379 43.9938 22.121 43.9938H22.1263C23.0785 43.9882 24.0368 43.9208 24.9745 43.7938C25.4556 43.7286 25.7926 43.2859 25.7274 42.8049Z" fill="#D41D17"/>
<path d="M28.0741 43.1063C28.1578 43.1063 28.2429 43.0942 28.3271 43.069C29.2367 42.7961 30.1377 42.46 31.0046 42.0704C31.4474 41.8714 31.6449 41.3512 31.446 40.9085C31.247 40.4656 30.7267 40.2681 30.2839 40.4671C29.4867 40.8255 28.6582 41.1344 27.8218 41.3854C27.3569 41.525 27.0931 42.0149 27.2326 42.4798C27.347 42.8605 27.6961 43.1063 28.0741 43.1063Z" fill="#D41D17"/>
<path d="M41.3931 27.8107C41.1425 28.6478 40.834 29.4767 40.4757 30.2748C40.277 30.7176 40.4748 31.2377 40.9176 31.4365C41.0345 31.489 41.1567 31.5137 41.2769 31.5137C41.6126 31.5137 41.9331 31.3205 42.0793 30.9944C42.4688 30.1267 42.8045 29.225 43.0769 28.3147C43.2162 27.8497 42.952 27.3599 42.487 27.2207C42.022 27.0817 41.5323 27.3457 41.3931 27.8107Z" fill="#D41D17"/>
<path d="M40.176 32.7868C39.7696 32.5215 39.2248 32.636 38.9596 33.0425C38.4821 33.7742 37.9516 34.4823 37.383 35.1469C37.0674 35.5157 37.1106 36.0706 37.4794 36.3862C37.6451 36.5279 37.8482 36.5973 38.0505 36.5973C38.2984 36.5973 38.5449 36.4928 38.7187 36.2896C39.3365 35.5675 39.9128 34.7982 40.4317 34.0032C40.697 33.5967 40.5825 33.0521 40.176 32.7868Z" fill="#D41D17"/>
<path d="M42.8085 25.7176C42.8483 25.723 42.8879 25.7256 42.9271 25.7256C43.3603 25.7256 43.7375 25.4052 43.797 24.9641C43.9235 24.0264 43.9902 23.0679 43.9951 22.1154C43.9976 21.63 43.6063 21.2344 43.1209 21.2319C42.635 21.235 42.2399 21.6208 42.2373 22.1063C42.2327 22.9835 42.1713 23.866 42.0548 24.7292C41.99 25.2102 42.3274 25.6527 42.8085 25.7176Z" fill="#D41D17"/>
<path d="M33.5321 40.5694C33.697 40.5694 33.8637 40.5231 34.0119 40.4262C34.8061 39.9075 35.5748 39.3311 36.2968 38.713C36.6655 38.3973 36.7085 37.8426 36.3928 37.4738C36.0771 37.1051 35.5222 37.0621 35.1535 37.3778C34.4891 37.9466 33.7816 38.4771 33.0507 38.9546C32.6443 39.22 32.5301 39.7647 32.7955 40.171C32.9641 40.429 33.2454 40.5694 33.5321 40.5694Z" fill="#D41D17"/>
</svg>
