<svg width="1em" height="1em" viewBox="0 0 90 90" fill="none" xmlns="http://www.w3.org/2000/svg">
<g clip-path="url(#clip0_464_603)">
<path d="M67.5298 7.30969H66.1827V5.625C66.1827 4.22719 65.0492 3.09375 63.6514 3.09375C62.2536 3.09375 61.1202 4.22719 61.1202 5.625V7.30969H28.8833V5.625C28.8833 4.22719 27.7498 3.09375 26.352 3.09375C24.9542 3.09375 23.8208 4.22719 23.8208 5.625V7.30969H22.4792C12.9505 7.30969 5.19922 15.0609 5.19922 24.5897V69.6319C5.19922 79.1606 12.9505 86.9119 22.4792 86.9119H67.5186C77.0473 86.9119 84.7986 79.1606 84.7986 69.6319V24.5784C84.7958 15.0581 77.0502 7.30969 67.5298 7.30969ZM22.4792 12.3722H23.818V14.0569C23.818 15.4547 24.9514 16.5881 26.3492 16.5881C27.747 16.5881 28.8805 15.4547 28.8805 14.0569V12.3722H61.1145V14.0569C61.1145 15.4547 62.248 16.5881 63.6458 16.5881C65.0436 16.5881 66.177 15.4547 66.177 14.0569V12.3722H67.5242C74.2545 12.3722 79.7277 17.8453 79.7277 24.5784V30.5044H10.2645V24.5869C10.2645 17.8537 15.7461 12.3722 22.4792 12.3722ZM67.5186 81.8438H22.4792C15.7433 81.8438 10.2645 76.365 10.2645 69.6291V35.5697H79.7333V69.6263C79.7333 76.3622 74.2517 81.8438 67.5186 81.8438Z" fill="#29292F"/>
<path d="M46.7902 43.2083C45.8002 42.2183 44.197 42.2183 43.2098 43.2083L37.9027 48.5155C36.9127 49.5055 36.9127 51.1086 37.9027 52.0958C38.8927 53.083 40.4958 53.0858 41.483 52.0958L42.4673 51.1114V72.4105C42.4673 73.8083 43.6008 74.9418 44.9986 74.9418C46.3964 74.9418 47.5298 73.8083 47.5298 72.4105V51.1114L48.5142 52.0958C49.0092 52.5908 49.6561 52.8383 50.3058 52.8383C50.9555 52.8383 51.6023 52.5908 52.0973 52.0958C53.0873 51.1058 53.0873 49.5027 52.0973 48.5155L46.7902 43.2083Z" fill="#3AE62C"/>
</g>
<defs>
<clipPath id="clip0_464_603">
<rect width="90" height="90" fill="white"/>
</clipPath>
</defs>
</svg>
