<svg width="1em" height="1em" viewBox="0 0 90 90" fill="none" xmlns="http://www.w3.org/2000/svg">
<g clip-path="url(#clip0_496_199)">
<path d="M84.92 50.79C84.59 50.17 84.14 49.62 83.59 49.18C83.04 48.74 82.42 48.41 81.74 48.21C81.06 48.01 80.36 47.95 79.66 48.04C78.96 48.13 78.29 48.34 77.68 48.69L52.61 62.96C52.13 61.89 51.36 60.98 50.39 60.33C49.42 59.68 48.28 59.32 47.1 59.28H40.55C40.26 58.12 39.6 57.09 38.67 56.33C37.74 55.58 36.59 55.15 35.4 55.11H26.4C25.21 55.15 24.06 55.58 23.13 56.33C22.2 57.08 21.54 58.12 21.25 59.28H17.4C17.47 58.76 17.43 58.24 17.28 57.74C17.13 57.24 16.88 56.78 16.54 56.39C16.2 56 15.78 55.68 15.31 55.46C14.84 55.24 14.33 55.12 13.81 55.11H6.6C5.65 55.11 4.73 55.49 4.06 56.17C3.38 56.83 3 57.75 3 58.7V82.2C3 83.15 3.38 84.07 4.06 84.74C4.74 85.41 5.65 85.79 6.6 85.8H13.8C14.75 85.8 15.67 85.42 16.34 84.74C17.01 84.07 17.39 83.15 17.4 82.2V79.55H22.71L46.56 85.37C49.21 85.99 51.97 85.92 54.59 85.15C57.2 84.38 59.57 82.95 61.46 81L83.98 58.57C84.96 57.55 85.58 56.25 85.75 54.84C85.92 53.44 85.62 52.02 84.91 50.8L84.92 50.79ZM13.8 82.2H6.6V58.7H13.8V82.2ZM81.44 56.01L58.92 78.44C57.46 79.95 55.63 81.06 53.62 81.66C51.61 82.26 49.47 82.33 47.42 81.86L23.36 75.99C23.51 75.89 17.51 75.96 17.41 75.94V62.87H22.81C23.29 62.87 23.75 62.68 24.08 62.34C24.42 62 24.61 61.54 24.61 61.07C24.61 59.79 25.43 58.7 26.41 58.7H35.41C36.39 58.7 37.21 59.78 37.21 61.07C37.21 61.55 37.4 62.01 37.74 62.34C38.08 62.68 38.54 62.87 39.01 62.87H47.11C47.88 63.05 48.56 63.49 49.05 64.11C49.54 64.73 49.81 65.5 49.81 66.28C49.81 67.06 49.54 67.84 49.05 68.45C48.56 69.07 47.88 69.5 47.11 69.69H39.01C38.54 69.69 38.09 69.89 37.76 70.23C37.43 70.57 37.24 71.02 37.24 71.49C37.24 71.96 37.42 72.41 37.76 72.75C38.09 73.09 38.54 73.28 39.01 73.29H47.11C48.8 73.2 50.4 72.46 51.56 71.22C52.72 69.98 53.37 68.35 53.37 66.66L79.46 51.81C81.79 50.63 83.1 54.64 81.45 56L81.44 56.01Z" fill="#29292F"/>
</g>
<g clip-path="url(#clip1_496_199)">
<path d="M44.12 16.33C42.82 14.73 41.02 13.61 39 13.18V9.4C39 7.97 38.43 6.6 37.42 5.58C36.41 4.57 35.04 4 33.6 4H8.4C6.97 4 5.6 4.57 4.58 5.58C3.57 6.6 3 7.97 3 9.4V34.6C3 36.03 3.57 37.4 4.58 38.42C5.59 39.43 6.96 40 8.4 40H13.8C14.28 40 14.74 39.81 15.07 39.47C15.41 39.13 15.6 38.67 15.6 38.2C15.6 37.49 15.74 36.79 16.01 36.13C16.28 35.47 16.68 34.88 17.18 34.37C17.68 33.87 18.28 33.47 18.93 33.2C19.59 32.93 20.29 32.79 21 32.79C21.71 32.79 22.41 32.93 23.07 33.2C23.73 33.47 24.32 33.87 24.82 34.37C25.32 34.87 25.72 35.47 25.99 36.13C26.26 36.79 26.4 37.49 26.4 38.2C26.4 38.68 26.59 39.14 26.93 39.47C27.27 39.81 27.73 40 28.2 40H33.6C35.03 40 36.4 39.43 37.42 38.42C38.43 37.41 39 36.03 39 34.6V30.82C41.02 30.39 42.82 29.27 44.12 27.67C45.42 26.07 46.12 24.06 46.12 22C46.12 19.94 45.41 17.94 44.12 16.33ZM40.97 25.8C39.97 26.81 38.61 27.39 37.19 27.4C36.71 27.4 36.25 27.59 35.92 27.93C35.58 28.27 35.39 28.73 35.39 29.2V34.6C35.39 35.08 35.2 35.53 34.86 35.87C34.52 36.21 34.07 36.4 33.59 36.4H29.81C29.38 34.38 28.27 32.57 26.66 31.28C25.06 29.98 23.05 29.28 20.99 29.28C18.93 29.28 16.93 29.99 15.32 31.28C13.72 32.58 12.6 34.38 12.17 36.4H8.39C7.91 36.4 7.46 36.21 7.12 35.87C6.78 35.53 6.59 35.08 6.59 34.6V9.4C6.59 8.92 6.78 8.47 7.12 8.13C7.46 7.79 7.91 7.6 8.39 7.6H33.59C34.07 7.6 34.52 7.79 34.86 8.13C35.2 8.47 35.39 8.92 35.39 9.4V14.8C35.39 15.28 35.58 15.74 35.92 16.07C36.26 16.41 36.72 16.6 37.19 16.6C38.61 16.62 39.97 17.19 40.97 18.2C41.97 19.21 42.53 20.57 42.53 22C42.53 23.43 41.97 24.79 40.97 25.8Z" fill="#FA419A"/>
<path d="M19.1992 11.2H11.9992C11.5192 11.2 11.0592 11.39 10.7292 11.73C10.3892 12.07 10.1992 12.53 10.1992 13V18.4C10.1992 18.87 10.3992 19.32 10.7392 19.65C11.0792 19.98 11.5292 20.17 11.9992 20.17C12.4692 20.17 12.9192 19.99 13.2592 19.65C13.5992 19.32 13.7892 18.87 13.7992 18.4V14.8H19.1992C19.6692 14.8 20.1192 14.6 20.4492 14.26C20.7792 13.92 20.9692 13.47 20.9692 13C20.9692 12.53 20.7892 12.08 20.4492 11.74C20.1192 11.4 19.6692 11.21 19.1992 11.2Z" fill="#FA419A"/>
<path d="M84.2091 5.58C83.1991 4.57 81.8291 4 80.3891 4H55.1891C53.7591 4 52.3891 4.57 51.3691 5.58C50.3591 6.59 49.7891 7.97 49.7891 9.4V14.8C49.7891 15.04 49.8391 15.27 49.9291 15.49C50.0191 15.71 50.1491 15.91 50.3191 16.07C50.4891 16.24 50.6891 16.37 50.8991 16.46C51.1191 16.55 51.3491 16.6 51.5891 16.6C53.0191 16.6 54.3991 17.17 55.4091 18.18C56.4191 19.19 56.9891 20.57 56.9891 22C56.9891 23.43 56.4191 24.81 55.4091 25.82C54.3991 26.83 53.0191 27.4 51.5891 27.4C51.3491 27.4 51.1191 27.45 50.8991 27.54C50.6791 27.63 50.4791 27.76 50.3191 27.93C50.1491 28.1 50.0191 28.3 49.9291 28.51C49.8391 28.73 49.7891 28.96 49.7891 29.2V34.6C49.7891 36.03 50.3591 37.4 51.3691 38.42C52.3791 39.43 53.7491 40 55.1891 40H58.9691C59.3991 42.02 60.5091 43.83 62.1191 45.12C63.7191 46.42 65.7291 47.12 67.7891 47.12C69.8491 47.12 71.8491 46.41 73.4591 45.12C75.0591 43.82 76.1791 42.02 76.6091 40H80.3891C81.8191 40 83.1891 39.43 84.2091 38.42C85.2191 37.41 85.7891 36.03 85.7891 34.6V9.4C85.7891 7.97 85.2191 6.6 84.2091 5.58ZM82.1891 34.6C82.1891 35.08 81.9991 35.53 81.6591 35.87C81.3191 36.21 80.8691 36.4 80.3891 36.4H74.9891C74.7491 36.4 74.5191 36.45 74.2991 36.54C74.0791 36.63 73.8791 36.76 73.7191 36.93C73.5491 37.1 73.4191 37.3 73.3291 37.51C73.2391 37.73 73.1891 37.96 73.1891 38.2C73.1891 38.91 73.0491 39.61 72.7791 40.27C72.5091 40.93 72.1091 41.52 71.6091 42.03C71.1091 42.53 70.5091 42.93 69.8591 43.2C69.1991 43.47 68.4991 43.61 67.7891 43.61C67.0791 43.61 66.3791 43.47 65.7191 43.2C65.0591 42.93 64.4691 42.53 63.9691 42.03C63.4691 41.53 63.0691 40.93 62.7991 40.27C62.5291 39.61 62.3891 38.91 62.3891 38.2C62.3891 37.96 62.3391 37.73 62.2491 37.51C62.1591 37.29 62.0291 37.09 61.8591 36.93C61.6891 36.76 61.4891 36.63 61.2791 36.54C61.0591 36.45 60.8291 36.4 60.5891 36.4H55.1891C54.7091 36.4 54.2591 36.21 53.9191 35.87C53.5791 35.53 53.3891 35.08 53.3891 34.6V30.82C55.4091 30.39 57.2091 29.27 58.5091 27.67C59.8091 26.07 60.5091 24.06 60.5091 22C60.5091 19.94 59.7991 17.94 58.5091 16.33C57.2091 14.73 55.4091 13.61 53.3891 13.18V9.4C53.3891 8.92 53.5791 8.47 53.9191 8.13C54.2591 7.79 54.7091 7.6 55.1891 7.6H80.3891C80.8691 7.6 81.3191 7.79 81.6591 8.13C81.9991 8.47 82.1891 8.92 82.1891 9.4V34.6Z" fill="#FA419A"/>
<path d="M78.0681 11.73C77.8981 11.56 77.6981 11.43 77.4881 11.34C77.2681 11.25 77.0381 11.2 76.7981 11.2H69.5981C69.1281 11.2 68.6781 11.4 68.3481 11.74C68.0181 12.08 67.8281 12.53 67.8281 13C67.8281 13.47 68.0181 13.92 68.3481 14.26C68.6781 14.6 69.1281 14.79 69.5981 14.8H74.9981V18.4C74.9981 18.87 75.1981 19.32 75.5381 19.65C75.8781 19.98 76.3281 20.16 76.7981 20.16C77.2681 20.16 77.7181 19.98 78.0581 19.65C78.3981 19.32 78.5881 18.87 78.5981 18.4V13C78.5981 12.76 78.5481 12.53 78.4581 12.31C78.3681 12.09 78.2381 11.89 78.0681 11.73Z" fill="#FA419A"/>
</g>
<defs>
<clipPath id="clip0_496_199">
<rect width="82.8" height="37.8" fill="white" transform="translate(3 48)"/>
</clipPath>
<clipPath id="clip1_496_199">
<rect width="82.79" height="43.13" fill="white" transform="translate(3 4)"/>
</clipPath>
</defs>
</svg>
