<svg width="1em" height="1em" viewBox="0 0 80 84" fill="none" xmlns="http://www.w3.org/2000/svg">
<path d="M69.789 5.85388H46.0688C45.6198 2.74215 42.9222 0.28125 39.5962 0.28125C36.3165 0.28125 33.5796 2.69764 33.1109 5.85388H10.229C4.89053 5.85388 0.550781 10.1936 0.550781 15.5194V54.4664C0.550781 59.7922 4.89053 64.132 10.229 64.132H20.827L12.8257 82.8551C12.6576 83.3033 12.9571 83.7183 13.3927 83.7183H20.9995C21.246 83.7183 21.4681 83.5703 21.5669 83.3487L29.7741 64.132H36.1393V83.1019C36.1393 83.4474 36.4228 83.7183 36.7557 83.7183H43.253C43.5982 83.7183 43.8694 83.4474 43.8694 83.1019V64.132H50.2352L58.4421 83.3487C58.5405 83.5703 58.7627 83.7183 59.0092 83.7183H66.6159C67.0684 83.7183 67.3611 83.2629 67.1833 82.8551L59.182 64.132H69.789C75.1151 64.132 79.4549 59.7922 79.4549 54.4664V15.5194C79.4549 10.1936 75.1151 5.85388 69.789 5.85388ZM76.9891 54.4664C76.9891 58.4359 73.7592 61.6662 69.789 61.6662H10.229C6.24682 61.6662 3.01653 58.4359 3.01653 54.4664V15.5194C3.01653 11.5493 6.24682 8.31963 10.229 8.31963H69.789C73.7592 8.31963 76.9891 11.5493 76.9891 15.5194V54.4664Z" fill="#29292F"/>
<path d="M21.9633 13.3618H10.9784C9.31394 13.3618 7.94531 14.7181 7.94531 16.3946V25.7767C7.94531 27.4412 9.31394 28.8095 10.9784 28.8095H21.9633C23.6275 28.8095 24.9961 27.4412 24.9961 25.7767V16.3946C24.9961 14.7181 23.6275 13.3618 21.9633 13.3618Z" fill="#FFDC26"/>
<path d="M34.5172 28.8095H45.4897C47.1665 28.8095 48.5352 27.4412 48.5352 25.7767V16.3946C48.5352 14.7181 47.1665 13.3618 45.4897 13.3618H34.5172C32.8407 13.3618 31.4844 14.7181 31.4844 16.3946V25.7767C31.4844 27.4412 32.8407 28.8095 34.5172 28.8095ZM33.9501 16.3946C33.9501 16.0864 34.209 15.8276 34.5172 15.8276H45.4897C45.8105 15.8276 46.0694 16.0864 46.0694 16.3946V25.7767C46.0694 26.0849 45.8105 26.3437 45.4897 26.3437H34.5172C34.209 26.3437 33.9501 26.0849 33.9501 25.7767V16.3946Z" fill="#29292F"/>
<path d="M58.0527 28.8095H69.0251C70.702 28.8095 72.058 27.4412 72.058 25.7767V16.3946C72.058 14.7181 70.702 13.3618 69.0251 13.3618H58.0527C56.3758 13.3618 55.0195 14.7181 55.0195 16.3946V25.7767C55.0195 27.4412 56.3758 28.8095 58.0527 28.8095Z" fill="#FFDC26"/>
<path d="M23.7674 30.8936H8.86178C8.18394 30.8936 7.62891 31.4359 7.62891 32.1264C7.62891 32.8043 8.18394 33.3593 8.86178 33.3593H23.7674C24.4455 33.3593 25.0002 32.8043 25.0002 32.1264C25.0002 31.4359 24.4455 30.8936 23.7674 30.8936Z" fill="#29292F"/>
<path d="M47.326 30.8936H32.4204C31.7299 30.8936 31.1875 31.4359 31.1875 32.1264C31.1875 32.8043 31.7299 33.3593 32.4204 33.3593H47.326C48.0038 33.3593 48.5588 32.8043 48.5588 32.1264C48.5588 31.4359 48.0038 30.8936 47.326 30.8936Z" fill="#FFDC26"/>
<path d="M70.9861 30.8936H56.0805C55.4024 30.8936 54.8477 31.4359 54.8477 32.1264C54.8477 32.8043 55.4024 33.3593 56.0805 33.3593H70.9861C71.6766 33.3593 72.219 32.8043 72.219 32.1264C72.219 31.4359 71.6766 30.8936 70.9861 30.8936Z" fill="#29292F"/>
<path d="M21.9633 36.6265H10.9784C9.31394 36.6265 7.94531 37.9948 7.94531 39.6593V49.0413C7.94531 50.7185 9.31394 52.0741 10.9784 52.0741H21.9633C23.6275 52.0741 24.9961 50.7185 24.9961 49.0413V39.6593C24.9961 37.9948 23.6275 36.6265 21.9633 36.6265ZM22.5303 49.0413C22.5303 49.3622 22.2715 49.6084 21.9633 49.6084H10.9784C10.6702 49.6084 10.4111 49.3622 10.4111 49.0413V39.6593C10.4111 39.3511 10.6702 39.0922 10.9784 39.0922H21.9633C22.2715 39.0922 22.5303 39.3511 22.5303 39.6593V49.0413Z" fill="#29292F"/>
<path d="M34.5172 52.0741H45.4897C47.1665 52.0741 48.5352 50.7185 48.5352 49.0413V39.6593C48.5352 37.9948 47.1665 36.6265 45.4897 36.6265H34.5172C32.8407 36.6265 31.4844 37.9948 31.4844 39.6593V49.0413C31.4844 50.7185 32.8407 52.0741 34.5172 52.0741Z" fill="#FFDC26"/>
<path d="M58.0527 52.0741H69.0251C70.702 52.0741 72.058 50.7185 72.058 49.0413V39.6593C72.058 37.9948 70.702 36.6265 69.0251 36.6265H58.0527C56.3758 36.6265 55.0195 37.9948 55.0195 39.6593V49.0413C55.0195 50.7185 56.3758 52.0741 58.0527 52.0741ZM57.4853 39.6593C57.4853 39.3511 57.7321 39.0922 58.0527 39.0922H69.0251C69.3457 39.0922 69.5922 39.3511 69.5922 39.6593V49.0413C69.5922 49.3622 69.3457 49.6084 69.0251 49.6084H58.0527C57.7321 49.6084 57.4853 49.3622 57.4853 49.0413V39.6593Z" fill="#29292F"/>
<path d="M23.7674 54.1582H8.86178C8.18394 54.1582 7.62891 54.7126 7.62891 55.3911C7.62891 56.0689 8.18394 56.624 8.86178 56.624H23.7674C24.4455 56.624 25.0002 56.0689 25.0002 55.3911C25.0002 54.7126 24.4455 54.1582 23.7674 54.1582Z" fill="#FFDC26"/>
<path d="M47.326 54.1582H32.4204C31.7299 54.1582 31.1875 54.7126 31.1875 55.3911C31.1875 56.0689 31.7299 56.624 32.4204 56.624H47.326C48.0038 56.624 48.5588 56.0689 48.5588 55.3911C48.5588 54.7126 48.0038 54.1582 47.326 54.1582Z" fill="#29292F"/>
<path d="M70.9861 54.1582H56.0805C55.4024 54.1582 54.8477 54.7126 54.8477 55.3911C54.8477 56.0689 55.4024 56.624 56.0805 56.624H70.9861C71.6766 56.624 72.219 56.0689 72.219 55.3911C72.219 54.7126 71.6766 54.1582 70.9861 54.1582Z" fill="#FFDC26"/>
</svg>
