<svg width="1em" height="1em" viewBox="0 0 90 90" fill="none" xmlns="http://www.w3.org/2000/svg">
<g clip-path="url(#clip0_464_608)">
<path d="M90 75.1901V79.5001C90 85.2901 85.29 90.0001 79.5 90.0001H10.5C4.71 90.0001 0 85.2901 0 79.5001V75.1901C0 74.3601 0.67 73.6901 1.5 73.6901H79.88V37.3101C79.88 36.4801 80.55 35.8101 81.38 35.8101C82.21 35.8101 82.88 36.4801 82.88 37.3101V75.1901C82.88 76.0201 82.21 76.6901 81.38 76.6901H3V79.5001C3 83.6401 6.36 87.0001 10.5 87.0001H79.5C83.64 87.0001 87 83.6401 87 79.5001V75.1901C87 74.3601 87.67 73.6901 88.5 73.6901C89.33 73.6901 90 74.3601 90 75.1901Z" fill="black"/>
<path d="M84.0011 0H50.4411C47.1311 0 44.4411 2.69 44.4411 6V14.44C44.4411 15.27 45.1111 15.94 45.9411 15.94C46.7711 15.94 47.4411 15.27 47.4411 14.44V6C47.4411 4.35 48.7911 3 50.4411 3H84.0011C85.6511 3 87.0011 4.35 87.0011 6V23.44C87.0011 25.09 85.6511 26.44 84.0011 26.44H70.6911C70.0811 26.44 69.5311 26.81 69.3011 27.37C68.2911 29.86 66.2711 31.63 63.7311 32.4C64.0511 31.46 64.3011 30.5 64.4711 29.52C64.7211 28.15 64.8311 27.53 64.3011 26.94C64.0211 26.62 63.6111 26.44 63.1811 26.44H50.4311C48.8811 26.44 47.5711 25.23 47.4411 23.69C47.3811 22.95 46.7811 22.35 46.0311 22.31C45.9111 22.31 13.3911 22.31 13.1211 22.31C9.81109 22.31 7.12109 25 7.12109 28.31V65.25C7.12109 66.08 7.79109 66.75 8.62109 66.75C9.45109 66.75 10.1211 66.08 10.1211 65.25V28.31C10.1211 26.66 11.4711 25.31 13.1211 25.31H44.7311C45.5311 27.71 47.8111 29.43 50.4311 29.43H61.4311C61.1311 30.89 60.6311 32.3 59.9711 33.63C59.4711 34.63 60.2011 35.8 61.3111 35.8C65.1311 35.8 69.5311 33.57 71.6511 29.42H84.0011C87.3111 29.42 90.0011 26.73 90.0011 23.42V6C90.0011 2.69 87.3111 0 84.0011 0Z" fill="black"/>
</g>
<g clip-path="url(#clip1_464_608)">
<path d="M71.0017 16C71.8317 16 72.5017 15.33 72.5017 14.5C72.5017 13.67 71.8317 13 71.0017 13H59.6217C58.7917 13 58.1217 13.67 58.1217 14.5C58.1217 15.33 58.7917 16 59.6217 16H71.0017ZM78.9417 16C79.7717 16 80.4417 15.33 80.4417 14.5C80.4417 13.67 79.7717 13 78.9417 13H78.1917C77.3617 13 76.6917 13.67 76.6917 14.5C76.6917 15.33 77.3617 16 78.1917 16H78.9417ZM57.1917 46V48.25H60.0517C62.7117 48.25 64.8817 50.42 64.8817 53.08V57.67C64.8817 60.33 62.7117 62.5 60.0517 62.5H57.0717C56.7617 64.39 55.8817 66.12 54.5017 67.5C53.6017 68.4 53.2917 68.87 52.5117 68.87C51.1917 68.87 50.5017 67.26 51.4517 66.31C52.4517 65.31 54.2017 63.88 54.2017 61V46C54.2017 41.45 50.5017 37.75 45.9517 37.75C41.4017 37.75 37.7017 41.45 37.7017 46V61C37.7017 61.83 37.0317 62.5 36.2017 62.5H31.8417C29.1817 62.5 27.0117 60.33 27.0117 57.67V53.08C27.0117 50.42 29.1817 48.25 31.8417 48.25H34.7017V46C34.7017 39.8 39.7517 34.75 45.9517 34.75C52.1517 34.75 57.2017 39.8 57.2017 46H57.1917ZM34.6917 51.25H31.8317C30.8217 51.25 30.0017 52.07 30.0017 53.08V57.67C30.0017 58.68 30.8217 59.5 31.8317 59.5H34.6917V51.25ZM57.1917 51.25V59.5H60.0517C61.0617 59.5 61.8817 58.68 61.8817 57.67V53.08C61.8817 52.07 61.0617 51.25 60.0517 51.25H57.1917Z" fill="#1439FF"/>
</g>
<defs>
<clipPath id="clip0_464_608">
<rect width="90" height="90" fill="white"/>
</clipPath>
<clipPath id="clip1_464_608">
<rect width="53.44" height="55.88" fill="white" transform="translate(27 13)"/>
</clipPath>
</defs>
</svg>
