<svg width="1em" height="1em" viewBox="0 0 101 100" fill="none" xmlns="http://www.w3.org/2000/svg">
<path d="M85.5137 56.7721L55.2438 17.8536C54.6975 17.1517 53.5141 17.1517 52.9678 17.8536L22.6979 56.7721C22.424 57.1252 22.3289 57.5836 22.4399 58.0175C22.5509 58.4499 22.8579 58.8059 23.2673 58.9818C23.4604 59.0654 42.5737 67.5251 42.5737 90.8099C42.5737 91.6055 43.2195 92.2513 44.0151 92.2513H64.1951C64.9907 92.2513 65.6365 91.6055 65.6365 90.8099C65.6365 67.59 84.1559 59.322 84.9444 58.9803C85.3537 58.803 85.6593 58.447 85.7703 58.0146C85.8813 57.5822 85.7876 57.1238 85.5137 56.7721ZM54.1051 53.3328C56.4892 53.3328 58.4294 55.273 58.4294 57.6571C58.4294 60.0412 56.4892 61.9814 54.1051 61.9814C51.721 61.9814 49.7808 60.0412 49.7808 57.6571C49.7808 55.273 51.721 53.3328 54.1051 53.3328ZM62.7753 89.3684H45.4335C45.3845 87.8622 45.2389 86.4337 45.0486 85.0442H63.1601C62.9699 86.4337 62.8243 87.8622 62.7753 89.3684ZM63.6473 82.1613H44.5629C41.3442 67.0581 30.2495 59.531 26.0377 57.1713L52.6637 22.9404V50.5956C49.3787 51.2658 46.898 54.1761 46.898 57.6571C46.898 61.6311 50.1311 64.8642 54.1051 64.8642C58.0791 64.8642 61.3122 61.6311 61.3122 57.6571C61.3122 54.1775 58.8315 51.2658 55.5465 50.5956V22.9404L82.1711 57.1713C77.9592 59.531 66.8646 67.0581 63.6473 82.1613Z" fill="#29292F"/>
<path d="M98.7863 0H87.2549C86.4592 0 85.8134 0.645758 85.8134 1.44142V5.7657H61.3092V1.44142C61.3092 0.645758 60.6635 0 59.8678 0H48.3364C47.5408 0 46.895 0.645758 46.895 1.44142V5.7657H22.3908V1.44142C22.3908 0.645758 21.745 0 20.9494 0H9.41799C8.62232 0 7.97656 0.645758 7.97656 1.44142V12.9728C7.97656 13.7685 8.62232 14.4142 9.41799 14.4142H20.9494C21.745 14.4142 22.3908 13.7685 22.3908 12.9728V8.64854H34.6991C26.3648 11.9753 17.2247 19.1681 16.677 34.5942H12.3008C11.5052 34.5942 10.8594 35.2399 10.8594 36.0356V47.567C10.8594 48.3627 11.5052 49.0084 12.3008 49.0084H23.8322C24.6279 49.0084 25.2736 48.3627 25.2736 47.567V36.0356C25.2736 35.2399 24.6279 34.5942 23.8322 34.5942H19.5469C19.9433 24.0386 24.7043 16.487 33.7391 12.1512C39.0349 9.60997 44.4028 8.91376 46.895 8.72206V12.9728C46.895 13.7685 47.5408 14.4142 48.3364 14.4142H59.8678C60.6635 14.4142 61.3092 13.7685 61.3092 12.9728V8.72206C63.8015 8.91376 69.1693 9.60997 74.4651 12.1512C83.5 16.487 88.261 24.0372 88.6574 34.5942H84.372C83.5764 34.5942 82.9306 35.2399 82.9306 36.0356V47.567C82.9306 48.3627 83.5764 49.0084 84.372 49.0084H95.9034C96.6991 49.0084 97.3448 48.3627 97.3448 47.567V36.0356C97.3448 35.2399 96.6991 34.5942 95.9034 34.5942H91.5273C90.9795 19.1681 81.8394 11.9753 73.5051 8.64854H85.8134V12.9728C85.8134 13.7685 86.4592 14.4142 87.2549 14.4142H98.7863C99.5819 14.4142 100.228 13.7685 100.228 12.9728V1.44142C100.228 0.645758 99.5819 0 98.7863 0ZM19.508 11.5314H10.8594V2.88285H19.508V11.5314ZM22.3908 37.477V46.1256H13.7423V37.477H22.3908ZM58.4264 11.5314H49.7779V2.88285H58.4264V11.5314ZM94.462 37.477V46.1256H85.8134V37.477H94.462ZM97.3448 11.5314H88.6963V2.88285H97.3448V11.5314Z" fill="#27DAB7"/>
<path d="M6.22008 60.0832L10.3275 56.6309C12.1629 55.0882 14.8948 55.3067 16.4171 57.118L37.2876 81.9493C37.4481 82.1415 37.5547 82.3766 37.5936 82.6248L39.2401 93.3261C39.3145 93.8096 39.1286 94.3 38.7506 94.6177C38.3725 94.9355 37.8575 95.0342 37.394 94.8777L27.1355 91.4147C26.8978 91.3336 26.6844 91.1883 26.5228 90.9971L5.65224 66.1658C4.12989 64.3545 4.38466 61.6258 6.22008 60.0832ZM29.9358 86.3157L13.7451 67.0522L11.5921 68.8617L27.7829 88.1252L29.9358 86.3157ZM18.051 63.4331L15.898 65.2426L32.0888 84.5061L34.2418 82.6966L18.051 63.4331ZM12.1133 58.7555L8.00583 62.2078C7.35756 62.7527 7.26753 63.7165 7.80522 64.3562L9.80633 66.7371L16.2653 61.3084L14.2642 58.9275C13.7265 58.2878 12.7615 58.2107 12.1133 58.7555ZM36.1222 91.4906L35.2027 85.5145L30.3934 89.5566L36.1222 91.4906Z" fill="black"/>
</svg>
