<svg width="1em" height="1em" viewBox="0 0 90 90" fill="none" xmlns="http://www.w3.org/2000/svg">
<g clip-path="url(#clip0_464_614)">
<path d="M67.5706 29.2503H51.8203V24.7497H63.0709V13.5H67.5706V29.2503Z" fill="#14B9FF"/>
<path d="M45.0698 58.4997C32.6673 58.4997 22.5703 48.4027 22.5703 36.0003C22.5703 23.597 32.6673 13.5 45.0698 13.5C50.892 13.5 56.4044 15.7223 60.6231 19.7441L66.8392 25.3405L63.8292 28.6875L57.5579 23.0622C54.1541 19.7721 49.7384 17.9997 45.0698 17.9997C35.1417 17.9997 27.07 26.0722 27.07 36.0003C27.07 45.9283 35.1417 54 45.0698 54C54.9978 54 63.0703 45.9283 63.0703 36.0003H67.57C67.57 48.4027 57.4731 58.4997 45.0698 58.4997Z" fill="#14B9FF"/>
<path d="M78.8203 90.0003H11.3203C7.60831 90.0003 4.57031 86.9623 4.57031 83.2503V6.75C4.57031 3.03717 7.60831 0 11.3203 0H78.8203C82.5331 0 85.5703 3.03717 85.5703 6.75V83.2503C85.5703 86.9623 82.5331 90.0003 78.8203 90.0003ZM11.3203 4.49972C10.0827 4.49972 9.07086 5.51239 9.07086 6.75V83.2503C9.07086 84.4879 10.0827 85.4997 11.3203 85.4997H78.8203C80.0579 85.4997 81.0706 84.4879 81.0706 83.2503V6.75C81.0706 5.51239 80.0579 4.49972 78.8203 4.49972H11.3203Z" fill="black"/>
<path d="M40.5703 76.5002H49.5706V81H40.5703V76.5002Z" fill="#14B9FF"/>
<path d="M6.82031 67.5H83.3206V71.9997H6.82031V67.5Z" fill="black"/>
</g>
<defs>
<clipPath id="clip0_464_614">
<rect width="90" height="90" fill="white"/>
</clipPath>
</defs>
</svg>
