<svg xmlns="http://www.w3.org/2000/svg" clip-rule="evenodd" fill-rule="evenodd" stroke-linejoin="round" stroke-miterlimit="2" viewBox="0 0 510 510"><path d="m415.073 179.167c-1.783-4.039.048-8.767 4.086-10.551 4.039-1.783 8.767.048 10.551 4.086 4.408 9.982 8.004 20.315 10.753 30.925l33.927 13.058c3.089 1.189 5.127 4.156 5.127 7.466v61.76c0 3.31-2.038 6.278-5.127 7.466 0 0-33.931 13.06-33.931 13.059-4.713 18.111-11.944 35.458-21.398 51.614l14.741 33.277c1.339 3.024.68 6.559-1.658 8.897l-43.661 43.662c-2.338 2.338-5.874 2.996-8.897 1.657 0 0-33.261-14.733-33.26-14.733-16.117 9.496-33.512 16.684-51.631 21.392l-13.059 33.93c-1.189 3.089-4.157 5.127-7.466 5.127h-61.761c-3.309 0-6.277-2.038-7.466-5.127 0 0-13.058-33.928-13.057-33.928-18.164-4.713-35.518-11.945-51.678-21.401l-33.277 14.74c-3.023 1.339-6.559.681-8.897-1.657l-43.661-43.662c-2.341-2.341-2.998-5.882-1.653-8.907 0 0 14.787-33.256 14.787-33.256-9.494-16.114-16.683-33.504-21.438-51.62l-33.943-13.064c-3.088-1.188-5.126-4.156-5.126-7.466v-61.76c0-3.31 2.038-6.277 5.126-7.466 0 0 33.94-13.063 33.94-13.062 4.755-18.165 11.946-35.518 21.443-51.677l-14.789-33.263c-1.345-3.025-.688-6.566 1.653-8.907l43.661-43.662c2.341-2.341 5.882-2.998 8.907-1.653 0 0 33.263 14.79 33.263 14.79 16.159-9.497 33.509-16.684 51.623-21.391l13.119-33.998c1.19-3.086 4.156-5.12 7.463-5.12h61.761c3.311 0 6.28 2.039 7.467 5.13 0 0 13.06 33.989 13.06 33.989 18.112 4.708 35.459 11.894 51.616 21.39l33.262-14.79c3.026-1.345 6.567-.688 8.908 1.653l6.864 6.865c3.123 3.122 3.123 8.192 0 11.314-3.122 3.122-8.191 3.122-11.313 0l-2.979-2.979-32.048 14.249c-2.412 1.073-5.199.886-7.447-.499-16.936-10.436-35.364-18.07-54.686-22.662-2.569-.61-4.671-2.449-5.618-4.914l-12.583-32.746h-50.776l-12.64 32.757c-.949 2.459-3.049 4.293-5.614 4.903-19.322 4.592-37.75 12.226-54.686 22.662-2.248 1.385-5.035 1.572-7.447.499l-32.048-14.249-35.89 35.89 14.25 32.047c1.072 2.413.886 5.199-.5 7.447-10.44 16.943-18.075 35.377-22.728 54.766-.614 2.56-2.449 4.654-4.906 5.599l-32.688 12.581v50.774l32.688 12.581c2.455.945 4.289 3.036 4.905 5.594 4.652 19.326 12.284 37.818 22.723 54.698 1.391 2.25 1.58 5.041.506 7.458l-14.25 32.047s35.896 35.896 35.896 35.896l32.052-14.197c2.404-1.065 5.177-.881 7.419.493 16.942 10.379 35.373 18.078 54.761 22.671 2.569.609 4.673 2.446 5.622 4.911l12.58 32.689h50.775l12.58-32.689c.948-2.463 3.05-4.3 5.617-4.91 19.318-4.591 37.802-12.221 54.676-22.655 2.246-1.389 5.032-1.58 7.447-.51l32.052 14.197s35.901-35.902 35.901-35.902l-14.197-32.051c-1.065-2.404-.881-5.178.493-7.42 10.38-16.942 18.079-35.375 22.673-54.704.61-2.567 2.447-4.668 4.909-5.616l32.689-12.581v-50.774l-32.689-12.581c-2.464-.948-4.302-3.052-4.911-5.622-2.631-11.105-6.26-21.897-10.844-32.274zm-89.068-29.608c3.472 2.727 4.077 7.76 1.35 11.233-2.728 3.472-7.761 4.077-11.233 1.349-20.074-15.767-45.389-25.166-72.9-25.166-65.193 0-117.988 52.795-117.988 117.989s52.794 118.061 117.988 118.061c65.196 0 118.061-52.866 118.061-118.061 0-5.119-.325-10.162-.957-15.108-.56-4.38 2.542-8.39 6.922-8.949 4.38-.56 8.389 2.542 8.949 6.922.716 5.61 1.086 11.329 1.086 17.135 0 74.031-60.03 134.061-134.061 134.061-74.033 0-133.988-60.029-133.988-134.061 0-74.034 59.954-133.989 133.988-133.989 31.241 0 59.988 10.679 82.783 28.584zm89.173-79.999-11.206-9.826c-3.64-3.192-5.193-8.149-4.024-12.847s4.864-8.35 9.575-9.464l77.569-18.335c4.071-.962 8.356.104 11.501 2.862 3.146 2.759 4.763 6.868 4.341 11.03l-8.041 79.299c-.489 4.816-3.626 8.957-8.131 10.73s-9.623.881-13.263-2.311l-10.43-9.145-125.985 141.462c-10.969 12.317-29.528 14.22-42.769 4.386l-30.55-22.689-50.173 50.172c-12.428 12.429-32.609 12.429-45.037 0-12.428-12.428-12.428-32.608 0-45.036l69.61-69.61c11.166-11.166 28.829-12.463 41.506-3.048l29.228 21.707zm64.397 35.186 7.006-69.096-67.588 15.976 12.804 11.226c1.634 1.434 2.615 3.471 2.717 5.642.101 2.172-.686 4.292-2.18 5.871-.111.118-.221.237-.329.359l-116.026 130.28c-2.755 3.094-7.418 3.572-10.744 1.102l-35.104-26.071c-6.308-4.685-15.096-4.04-20.652 1.516l-69.61 69.611c-6.184 6.184-6.184 16.225 0 22.409s16.225 6.184 22.409 0l55.056-55.056 2.615-1.742s4.183-1.719 8.822 1.727l35.084 26.056c6.588 4.893 15.823 3.946 21.281-2.183l130.535-146.572c.164-.183.322-.37.476-.558 1.37-1.688 3.369-2.744 5.535-2.927s4.313.523 5.948 1.956z"></path></svg>