<svg xmlns="http://www.w3.org/2000/svg" id="Icons" viewBox="0 0 60 60" width="512" height="512"><path d="M3,46H28.139A15.993,15.993,0,1,0,53,30.782V3a3,3,0,0,0-3-3H3A3,3,0,0,0,0,3V43A3,3,0,0,0,3,46Zm40-3.419L31.194,38.365A14.012,14.012,0,0,1,43,30.051ZM30,44a13.95,13.95,0,0,1,.525-3.751l12.043,4.3L36.507,55.806A13.991,13.991,0,0,1,30,44ZM44,58a13.9,13.9,0,0,1-5.734-1.242l6.488-12.047,11.653-7.173A13.981,13.981,0,0,1,44,58ZM55.352,35.838,45,42.21V30.051A13.983,13.983,0,0,1,55.352,35.838ZM44,28A16.019,16.019,0,0,0,28,44H3a1,1,0,0,1-1-1V10H51V29.635A15.869,15.869,0,0,0,44,28ZM3,2H50a1,1,0,0,1,1,1V8H2V3A1,1,0,0,1,3,2Z"></path><circle cx="5" cy="5" r="1"></circle><circle cx="9" cy="5" r="1"></circle><circle cx="13" cy="5" r="1"></circle><path d="M44,15a3,3,0,0,0-3,3,2.948,2.948,0,0,0,.165.938l-4.553,3.54a2.973,2.973,0,0,0-4.049.785l-8.582-2.45A2.993,2.993,0,0,0,18,21a2.933,2.933,0,0,0,.137.847L11.7,26.529A2.973,2.973,0,0,0,10,26a3,3,0,1,0,3,3,2.933,2.933,0,0,0-.137-.847l6.442-4.682a2.982,2.982,0,0,0,4.132-.734l8.582,2.45A2.993,2.993,0,0,0,38,25a2.948,2.948,0,0,0-.165-.938l4.553-3.54A3,3,0,1,0,44,15ZM10,30a1,1,0,1,1,1-1A1,1,0,0,1,10,30Zm11-8a1,1,0,1,1,1-1A1,1,0,0,1,21,22Zm14,4a1,1,0,1,1,1-1A1,1,0,0,1,35,26Zm9-7a1,1,0,1,1,1-1A1,1,0,0,1,44,19Z"></path></svg>