<svg xmlns="http://www.w3.org/2000/svg" viewBox="0 0 64 64">
    <g id="Trash">
        <path
            d="m32.06 45.65a3.9 3.9 0 0 1 -3.38-1.33 3.06 3.06 0 0 1 -.38-2.64 1 1 0 0 1 1.9.62 1.1 1.1 0 0 0 .1.85 2.35 2.35 0 0 0 1.85.5 1.56 1.56 0 0 0 1.53-1.17c.15-.81-.65-1.63-2.14-2.2a5.76 5.76 0 0 1 -3.28-2.76 2.45 2.45 0 0 1 .37-2.67c.59-.7 2.82-2.74 6.3.22a1 1 0 1 1 -1.3 1.52c-2.23-1.9-3.18-.8-3.49-.44a.47.47 0 0 0 -.08.49 3.83 3.83 0 0 0 2.2 1.78c3.63 1.39 3.51 3.73 3.39 4.41a3.56 3.56 0 0 1 -3.48 2.82z">
        </path>
        <path d="m32 35.58a1 1 0 0 1 -1-1v-1.58a1 1 0 0 1 2 0v1.58a1 1 0 0 1 -1 1z"></path>
        <path d="m32 47.5a1 1 0 0 1 -1-1v-1.85a1 1 0 0 1 2 0v1.85a1 1 0 0 1 -1 1z"></path>
        <path
            d="m55.42 56h-26.42a1 1 0 0 1 0-2h26.42a2.74 2.74 0 0 0 2.58-2.87v-23.25a2.75 2.75 0 0 0 -2.58-2.88h-26.42a1 1 0 0 1 0-2h26.42a4.75 4.75 0 0 1 4.58 4.88v23.25a4.74 4.74 0 0 1 -4.58 4.87z">
        </path>
        <path
            d="m51 52h-22a1 1 0 0 1 0-2h21c.28-2.64 1.7-4.32 4-4.69v-11.53c-2.22-.4-3.66-2.13-4-4.78h-21a1 1 0 0 1 0-2h22a1 1 0 0 1 1 1c0 1.76.52 3.86 3 3.86a1 1 0 0 1 1 1v13.37a1 1 0 0 1 -1 1c-2 0-3 1.27-3 3.77a1 1 0 0 1 -1 1z">
        </path>
        <path
            d="m23.84 56h-16.22a1 1 0 0 1 -1-1v-2.16a1 1 0 0 1 2 0v1.16h15.22a.17.17 0 0 0 .16-.08v-3.24a.17.17 0 0 0 -.16-.08h-16.22a1 1 0 1 1 0-2h16.22a2.12 2.12 0 0 1 2.16 2.08v3.24a2.12 2.12 0 0 1 -2.16 2.08z">
        </path>
        <path
            d="m21.3 50.6h-16.15a2.12 2.12 0 0 1 -2.15-2.08v-3.24a2.12 2.12 0 0 1 2.15-2.08h16.15a1 1 0 0 1 0 2h-16.15c-.1 0-.15.06-.15.08v3.24s0 .08.15.08h16.15a1 1 0 1 1 0 2z">
        </path>
        <path
            d="m23.84 45.2h-16.22a1 1 0 1 1 0-2h16.22a.17.17 0 0 0 .16-.08v-3.24a.17.17 0 0 0 -.16-.08h-15.22v1.2a1 1 0 1 1 -2 0v-2.2a1 1 0 0 1 1-1h16.22a2.12 2.12 0 0 1 2.16 2.08v3.24a2.12 2.12 0 0 1 -2.16 2.08z">
        </path>
        <path
            d="m14.6 37.78a11.4 11.4 0 0 1 -7.23-20.21 1 1 0 1 1 1.26 1.54 9.4 9.4 0 1 0 15.37 7.27 9.27 9.27 0 0 0 -2-5.77 1 1 0 0 1 1.58-1.23 11.4 11.4 0 0 1 -9 18.4z">
        </path>
        <path
            d="m14.46 33.32a6.94 6.94 0 0 1 -5.21-11.52 1 1 0 1 1 1.5 1.32 4.94 4.94 0 1 0 8.65 3.26c0-.15 0-.3 0-.45a1 1 0 1 1 2-.18q0 .32 0 .63a6.94 6.94 0 0 1 -6.94 6.94z">
        </path>
        <path d="m19.32 47.36a1 1 0 0 1 -1-1v-2.16a1 1 0 0 1 2 0v2.16a1 1 0 0 1 -1 1z"></path>
        <path d="m20.4 56a1 1 0 0 1 -1-1v-2.16a1 1 0 0 1 2 0v2.16a1 1 0 0 1 -1 1z"></path>
        <g>
            <path
                d="m34 18h-4a1 1 0 0 1 -1-1v-3h-.83a2 2 0 0 1 -1.51-3.3l3.82-4.47a2.08 2.08 0 0 1 3 0l3.82 4.47a2 2 0 0 1 -1.47 3.3h-.83v3a1 1 0 0 1 -1 1zm-3-2h2v-3a1 1 0 0 1 1-1h1.83l-3.83-4.46-3.83 4.46h1.83a1 1 0 0 1 1 1z">
            </path>
            <path
                d="m18 21h-4a1 1 0 0 1 -1-1v-3h-.83a2 2 0 0 1 -1.51-3.3l3.82-4.47a2.08 2.08 0 0 1 3 0l3.82 4.47a2 2 0 0 1 -1.47 3.3h-.83v3a1 1 0 0 1 -1 1zm-3-2h2v-3a1 1 0 0 1 1-1h1.83l-3.83-4.46-3.83 4.46h1.83a1 1 0 0 1 1 1z">
            </path>
            <path
                d="m50 21h-4a1 1 0 0 1 -1-1v-3h-.83a2 2 0 0 1 -1.51-3.3l3.82-4.47a2.08 2.08 0 0 1 3 0l3.82 4.47a2 2 0 0 1 -1.47 3.3h-.83v3a1 1 0 0 1 -1 1zm-3-2h2v-3a1 1 0 0 1 1-1h1.83l-3.83-4.46-3.83 4.46h1.83a1 1 0 0 1 1 1z">
            </path>
        </g>
    </g>
</svg>