<svg xmlns="http://www.w3.org/2000/svg" id="Layer_3" height="512" viewBox="0 0 64 64" width="512" data-name="Layer 3"><path d="m58 9h-5.586l1.464-1.464a3.828 3.828 0 1 0 -5.414-5.414l-6.878 6.878h-35.586a5.006 5.006 0 0 0 -5 5v32a5.006 5.006 0 0 0 5 5h18.382l-2 4h-.382a5.006 5.006 0 0 0 -5 5 3 3 0 0 0 3 3h24a3 3 0 0 0 3-3 5.006 5.006 0 0 0 -5-5h-.382l-2-4h18.382a5.006 5.006 0 0 0 5-5v-32a5.006 5.006 0 0 0 -5-5zm-28 19.586-2.586-2.586 15.586-15.586 2.586 2.586zm-3.663-.835 1.912 1.912-3.349 1.437zm5.249-8.751h-18.586v-3a1 1 0 0 1 1-1h21.586zm-18.586 2h16.586l-4.293 4.293a1 1 0 0 0 -.212.313l-.597 1.394h-9.484v2h8.626l-.857 2h-7.769v2h7.01a.992.992 0 0 0 1.384.919l7-3a1 1 0 0 0 .313-.212l.293-.293v6.586h-17a1 1 0 0 1 -1-1zm20 7.414 7.414-7.414h10.586v15a1 1 0 0 1 -1 1h-17zm18-9.414h-8.586l4-4h3.586a1 1 0 0 1 1 1zm-4-7.414-2.586-2.586 1.586-1.586 2.586 2.586zm2.878-8.05a1.829 1.829 0 1 1 2.586 2.586l-2.464 2.464-2.586-2.586zm-43.878 7.464h33.586l-2 2h-23.586a3 3 0 0 0 -3 3v20a3 3 0 0 0 3 3h36a3 3 0 0 0 3-3v-20a3 3 0 0 0 -3-3h-1.586l2-2h7.586a3 3 0 0 1 3 3v27h-58v-27a3 3 0 0 1 3-3zm39 49a1 1 0 0 1 -1 1h-24a1 1 0 0 1 -1-1 3 3 0 0 1 3-3h20a3 3 0 0 1 3 3zm-5.618-5h-14.764l2-4h10.764zm18.618-6h-52a3 3 0 0 1 -3-3v-3h58v3a3 3 0 0 1 -3 3z"></path><path d="m31 45h2v2h-2z"></path><path d="m19 23h6v2h-6z"></path><path d="m39 23h6v2h-6z"></path><path d="m47 23h2v2h-2z"></path><path d="m35 27h14v2h-14z"></path><path d="m35 31h14v2h-14z"></path></svg>