<svg width="1em" height="1em" viewBox="0 0 71 70" fill="none" xmlns="http://www.w3.org/2000/svg">
<g clip-path="url(#clip0_464_1175)">
<path d="M18.6629 43.9743V44.7246C18.6629 45.7692 19.3688 46.6813 20.3835 46.9314L24.2806 47.9024C26.2953 48.4027 27.6923 50.1975 27.6923 52.2719V53.0222C27.6923 55.5086 25.6776 57.5241 23.1923 57.5241V59.8045C23.1923 60.4224 22.6923 60.9226 22.0747 60.9226C21.457 60.9226 20.957 60.4224 20.957 59.8045V57.5241C18.4717 57.5241 16.457 55.5086 16.457 53.0222C16.457 52.4043 16.957 51.9041 17.5747 51.9041C18.1923 51.9041 18.6923 52.4043 18.6923 53.0222C18.6923 54.2728 19.707 55.3026 20.9717 55.3026H23.2364C24.4864 55.3026 25.5159 54.2875 25.5159 53.0222V52.2719C25.5159 51.2274 24.81 50.3152 23.7953 50.0651L19.8982 49.0941C17.8835 48.5939 16.4864 46.799 16.4864 44.7246V43.9743C16.4864 41.488 18.5012 39.4724 20.9864 39.4724V37.3686C20.9864 36.7507 21.4864 36.2505 22.1041 36.2505C22.7217 36.2505 23.2217 36.7507 23.2217 37.3686V39.4724C25.707 39.4724 27.7217 41.488 27.7217 43.9743C27.7217 44.5922 27.2217 45.0924 26.6041 45.0924C25.9864 45.0924 25.4864 44.5922 25.4864 43.9743C25.4864 42.7238 24.4717 41.694 23.207 41.694H20.9423C19.6923 41.694 18.6629 42.7091 18.6629 43.9743Z" fill="#27DAB7"/>
<path d="M40.2942 38.8105C37.2354 32.4843 33.1177 27.3498 30.853 24.7458C32.7648 24.4074 34.2207 22.7449 34.2207 20.7294V19.1405C34.2207 17.0661 32.6618 15.3595 30.6471 15.1094L32.0589 6.64992C32.1765 5.92903 31.9707 5.19342 31.5001 4.63436C31.0295 4.07531 30.3383 3.75164 29.603 3.75164H22.9265V2.47169C22.9265 1.10347 21.8089 -0.0146484 20.4413 -0.0146484H13.956C13.2501 -0.0146484 12.5589 0.294305 12.0883 0.823939C11.6177 1.35357 11.3971 2.07446 11.4854 2.78064L13.0295 15.0946C11.0001 15.33 9.41184 17.0366 9.41184 19.1405V20.7294C9.41184 22.892 11.103 24.6575 13.2354 24.7899C8.92655 29.7184 -1.76463 43.5036 0.250076 56.8916C2.0589 69.0585 10.3383 70.0001 21.8089 70.0001H22.2942C27.0148 70.0001 30.7942 69.8235 33.9707 68.9849C34.5589 68.8231 34.9118 68.2199 34.7648 67.6167C34.603 67.0282 34.0001 66.6751 33.3971 66.8223C30.2942 67.6461 26.2207 67.7638 22.2942 67.7638H21.8089C9.77949 67.7638 3.95596 66.6604 2.45596 56.5532C0.353017 42.5032 13.9707 27.2174 16.2207 24.8193H27.9118C29.2648 26.2611 34.6324 32.2342 38.2942 39.7815C38.4854 40.1787 38.8824 40.4141 39.2942 40.4141C39.456 40.4141 39.6177 40.3847 39.7795 40.2964C40.3383 40.0316 40.5589 39.3548 40.2942 38.8105ZM13.7648 2.30986C13.7648 2.30986 13.8677 2.22159 13.956 2.22159H20.4413C20.5883 2.22159 20.6913 2.33928 20.6913 2.47169V8.63604C20.6913 9.25395 21.1913 9.75416 21.8089 9.75416C22.4265 9.75416 22.9265 9.25395 22.9265 8.63604V5.98787H29.603C29.706 5.98787 29.7648 6.03201 29.7942 6.07615C29.8236 6.12028 29.8677 6.19384 29.853 6.28211L28.3971 15.0505H15.2648L13.6913 2.51583C13.6913 2.41284 13.7207 2.35399 13.7501 2.30986H13.7648ZM13.5001 22.5831C12.4707 22.5831 11.6471 21.7445 11.6471 20.7294V19.1405C11.6471 18.1106 12.4854 17.2867 13.5001 17.2867H30.1324C31.1618 17.2867 31.9854 18.1253 31.9854 19.1405V20.7294C31.9854 21.7592 31.1471 22.5831 30.1324 22.5831H13.5001Z" fill="white"/>
<path d="M70.5882 46.5636C70.5882 44.3126 68.75 42.4736 66.5 42.4736H40.8382C38.5882 42.4736 36.75 44.3126 36.75 46.5636V53.2723C36.75 54.4492 37.25 55.4938 38.0441 56.2441C37.25 56.9944 36.75 58.039 36.75 59.216V65.9247C36.75 68.1756 38.5882 70.0146 40.8382 70.0146H66.5C68.75 70.0146 70.5882 68.1756 70.5882 65.9247V59.216C70.5882 58.039 70.0882 56.9944 69.2941 56.2441C70.0882 55.4938 70.5882 54.4492 70.5882 53.2723V46.5636ZM68.3529 65.9099C68.3529 66.9398 67.5147 67.7637 66.5 67.7637H40.8382C39.8088 67.7637 38.9853 66.9251 38.9853 65.9099V59.2013C38.9853 58.1714 39.8235 57.3475 40.8382 57.3475H66.5C67.5294 57.3475 68.3529 58.1861 68.3529 59.2013V65.9099ZM68.3529 53.2576C68.3529 54.2874 67.5147 55.1113 66.5 55.1113H40.8382C39.8088 55.1113 38.9853 54.2727 38.9853 53.2576V46.5489C38.9853 45.519 39.8235 44.6952 40.8382 44.6952H66.5C67.5294 44.6952 68.3529 45.5337 68.3529 46.5489V53.2576Z" fill="#27DAB7"/>
<path d="M43.3973 25.4077C43.6179 25.6284 43.8973 25.7314 44.1914 25.7314C44.4855 25.7314 44.765 25.6284 44.9855 25.4077L48.1473 22.2446C48.5885 21.8033 48.5885 21.0971 48.1473 20.6704C47.7061 20.2438 47.0003 20.2291 46.5738 20.6704L45.3091 21.9357V8.7978C45.3091 8.1799 44.8091 7.67969 44.1914 7.67969C43.5738 7.67969 43.0738 8.1799 43.0738 8.7978V21.921L41.8091 20.6557C41.3679 20.2144 40.662 20.2144 40.2355 20.6557C39.8091 21.0971 39.7944 21.8033 40.2355 22.2299L43.3973 25.393V25.4077Z" fill="white"/>
<path d="M52.8833 34.8969C53.0892 35.1029 53.3686 35.2206 53.6774 35.2206C53.9862 35.2206 54.2509 35.1029 54.4715 34.8969L57.6333 31.7338C58.0744 31.2925 58.0744 30.5863 57.6333 30.1596C57.1921 29.7183 56.4862 29.7183 56.0597 30.1596L54.795 31.4249V18.3017C54.795 17.6838 54.295 17.1836 53.6774 17.1836C53.0597 17.1836 52.5597 17.6838 52.5597 18.3017V31.4249L51.295 30.1596C50.8539 29.7183 50.1627 29.7183 49.7215 30.1596C49.2803 30.601 49.2803 31.3072 49.7215 31.7338L52.8833 34.8969Z" fill="white"/>
<path d="M62.3661 25.4077C62.5867 25.6284 62.8661 25.7314 63.1602 25.7314C63.4543 25.7314 63.7337 25.6284 63.9543 25.4077L67.1161 22.2446C67.5572 21.8033 67.5572 21.0971 67.1161 20.6704C66.6749 20.2438 65.969 20.2291 65.5425 20.6704L64.2778 21.9357V8.7978C64.2778 8.1799 63.7778 7.67969 63.1602 7.67969C62.5425 7.67969 62.0425 8.1799 62.0425 8.7978V21.921L60.7778 20.6557C60.3367 20.2144 59.6308 20.2144 59.2043 20.6557C58.7778 21.0971 58.7631 21.8033 59.2043 22.2299L62.3661 25.393V25.4077Z" fill="white"/>
</g>
<defs>
<clipPath id="clip0_464_1175">
<rect width="70.5882" height="70" fill="white"/>
</clipPath>
</defs>
</svg>
