<svg width="1em" height="1em" viewBox="0 0 65 65" fill="none" xmlns="http://www.w3.org/2000/svg">
<path fill-rule="evenodd" clip-rule="evenodd" d="M47.8579 24.6816C47.8579 24.8719 47.873 25.0601 47.9054 25.2461C47.9379 25.4299 47.9833 25.6116 48.046 25.7889C48.3293 26.574 47.9249 27.4391 47.1398 27.7224C46.9754 27.783 46.8024 27.8133 46.6272 27.8133V27.8176H38.6963C37.8594 27.8176 37.1824 27.1406 37.1824 26.3037V20.17H37.0764C33.6182 20.17 30.813 17.3649 30.8152 13.9066C30.8152 10.4484 33.6182 7.6454 37.0764 7.6454H37.1824V1.51394C37.1824 0.676948 37.8594 0 38.6963 0H63.4861C64.3231 0 65 0.676948 65 1.51394V26.3037C65 27.1406 64.3231 27.8176 63.4861 27.8176H55.5573C54.7203 27.8176 54.0434 27.1406 54.0434 26.3037C54.0434 26.096 54.0866 25.8906 54.1688 25.7002C54.2164 25.5532 54.2532 25.4018 54.2791 25.2482C54.3116 25.0622 54.3267 24.8741 54.3267 24.6837C54.3267 22.8973 52.8798 21.4482 51.0912 21.4482C49.3048 21.4482 47.8557 22.8951 47.8557 24.6837L47.8579 24.6816ZM57.3524 24.6816V24.7875H61.9721V3.02788H40.2103V9.44267H40.206C40.206 9.61786 40.1757 9.79088 40.1151 9.95525C39.8318 10.7403 38.9645 11.1469 38.1816 10.8615C38.0064 10.7987 37.8247 10.7511 37.6388 10.7209C37.4528 10.6884 37.2646 10.6733 37.0743 10.6733C35.2878 10.6733 33.8388 12.1223 33.8388 13.9088C33.8388 15.6952 35.2878 17.1443 37.0743 17.1443C37.2624 17.1443 37.4528 17.1292 37.6388 17.0967C37.7923 17.0708 37.9437 17.034 38.0908 16.9864C38.2811 16.9042 38.4866 16.861 38.6942 16.861C39.5312 16.861 40.2081 17.5401 40.2081 18.3749V24.7897H44.8235V24.6837C44.8429 21.2536 47.62 18.4787 51.0501 18.4571C54.5084 18.4376 57.3286 21.2233 57.3503 24.6837L57.3524 24.6816Z" fill="#27DAB7"/>
<path fill-rule="evenodd" clip-rule="evenodd" d="M34.5143 64.9785C23.5317 64.9634 12.5881 64.9483 1.51902 64.9937H1.51253C0.679859 64.9937 0.00507355 64.3189 0.00507355 63.4862V14.0431C0.000747681 13.9998 -0.00141525 13.9544 -0.00141525 13.909C-0.00141525 13.072 0.675533 12.395 1.51253 12.395H26.3022C27.1392 12.395 27.8162 13.072 27.8162 13.909V21.8377H27.8119C27.8119 22.0129 27.7816 22.1859 27.721 22.3503C27.4377 23.1354 26.5704 23.542 25.7875 23.2565C25.6123 23.1937 25.4306 23.1462 25.2446 23.1159C25.0586 23.0834 24.8705 23.0683 24.6802 23.0683C22.8937 23.0683 21.4446 24.5174 21.4446 26.3038C21.4446 28.0903 22.8937 29.5393 24.6802 29.5393C24.8683 29.5393 25.0586 29.5242 25.2446 29.4917C25.3982 29.4658 25.5496 29.429 25.6967 29.3814C25.887 29.2993 26.0924 29.256 26.3001 29.256C27.1371 29.256 27.814 29.9351 27.814 30.7699V37.1847H32.4315V37.0788C32.4315 33.6183 35.2367 30.8132 38.6949 30.8154C42.1532 30.8154 44.9583 33.6205 44.9562 37.0788V37.1847H51.0876C51.9246 37.1847 52.6016 37.8617 52.6016 38.6987V63.4884C52.6016 64.3254 51.9246 65.0023 51.0876 65.0023C49.6083 65.0023 42.0818 64.9915 34.51 64.9807L34.5143 64.9785ZM3.02214 40.2126V61.9744C10.3128 61.9463 17.5538 61.9463 24.7883 61.9528V55.5575C24.7883 54.7205 25.4652 54.0436 26.3022 54.0436C26.5099 54.0436 26.7153 54.0868 26.9056 54.169C27.0527 54.2166 27.2041 54.2533 27.3577 54.2793C27.5437 54.3117 27.7318 54.3269 27.9222 54.3269C29.7086 54.3269 31.1577 52.8778 31.1577 51.0914C31.1577 49.3049 29.7086 47.8559 27.9222 47.8559C27.734 47.8559 27.5437 47.871 27.3577 47.9034C27.1738 47.9337 26.9922 47.9813 26.8148 48.044C26.0297 48.3273 25.1646 47.9229 24.8813 47.1378C24.8207 46.9734 24.7905 46.8004 24.7905 46.6252H24.7861V40.2105H20.1686V40.3164C20.1686 43.7747 17.3635 46.5798 13.9052 46.5777C10.4469 46.5777 7.64399 43.7747 7.64399 40.3164V40.2105H3.02214V40.2126ZM18.3735 37.1826H24.7883V32.5629H24.6823C21.224 32.565 18.4189 29.7621 18.4189 26.3017C18.4189 22.8412 21.2219 20.0383 24.6823 20.0383H24.7883V15.4207H3.02214V37.1804H9.44341C9.65104 37.1804 9.85651 37.2237 10.0468 37.3058C10.8146 37.6389 11.165 38.5321 10.8319 39.2978C10.7843 39.4448 10.7476 39.5962 10.7216 39.7498C10.6892 39.9358 10.674 40.1239 10.674 40.3143C10.674 42.1029 12.1231 43.5498 13.9095 43.5498C15.696 43.5498 17.1451 42.1007 17.1451 40.3143C17.1451 40.1261 17.1299 39.9358 17.0975 39.7498C17.0672 39.5659 17.0196 39.3843 16.9569 39.2069C16.8963 39.0426 16.8661 38.8695 16.8661 38.6943C16.8661 37.8595 17.5408 37.1826 18.3757 37.1826V37.1782L18.3735 37.1826ZM49.578 40.2126H43.1632C42.9556 40.2126 42.7501 40.1694 42.5598 40.0872C41.792 39.7541 41.4417 38.8609 41.7747 38.0953C41.8223 37.9482 41.8591 37.7968 41.885 37.6432C41.9175 37.4572 41.9326 37.2691 41.9326 37.0788C41.9326 35.2901 40.4835 33.8432 38.6971 33.8432C36.9106 33.8432 35.4616 35.2923 35.4616 37.0788C35.4616 37.2669 35.4767 37.4572 35.5092 37.6432C35.5394 37.8271 35.587 38.0087 35.6497 38.1861C35.7081 38.3505 35.7406 38.5235 35.7406 38.6987C35.7406 39.5335 35.0658 40.2105 34.231 40.2105V40.2148H27.8162V44.8323H27.9222C31.3783 44.8345 34.1769 47.6353 34.1812 51.0914C34.1834 54.5496 31.3826 57.3569 27.9222 57.3591H27.8162V61.9593L34.5143 61.968C37.7736 61.9723 41.0891 61.9788 49.578 61.9788V40.2169V40.2126Z" fill="white"/>
</svg>
