<svg width="1em" height="1em" viewBox="0 0 70 70" fill="none" xmlns="http://www.w3.org/2000/svg">
<path d="M60.5117 40.8188C68.8772 30.4748 71.938 16.8199 68.791 3.89451C68.4701 2.56765 67.4336 1.53256 66.1067 1.21161C53.1813 -1.93534 39.5264 1.12547 29.1825 9.49095L16.8906 7.95707C15.4651 7.78062 14.0674 8.4503 13.3102 9.67157L0.36388 30.7944C-0.218271 31.7253 -0.0918373 32.9326 0.670934 33.7232C1.12109 34.2039 1.75049 34.4776 2.40905 34.479C2.81614 34.479 3.21767 34.3748 3.57475 34.1775C6.5911 32.5325 10.8676 30.9555 14.644 32.3338C14.5161 32.8493 14.3716 33.3592 14.2633 33.8802C14.0174 35.0848 14.398 36.3311 15.272 37.1939L15.6207 37.5426L14.091 43.6587L11.6693 46.0804C10.9149 46.8404 10.7523 48.0061 11.2692 48.9439C9.41433 49.2023 7.69427 50.0582 6.3688 51.3809C3.21906 54.5306 2.55911 65.0857 2.49381 66.2792C2.47713 66.5988 2.59106 66.9114 2.81197 67.1448C3.03289 67.3768 3.33855 67.5088 3.65811 67.5088C3.67895 67.5088 3.69979 67.5088 3.72202 67.5074C4.9155 67.4421 15.472 66.7836 18.6204 63.6325C19.9445 62.307 20.8003 60.5869 21.0588 58.7321C21.9952 59.2573 23.1664 59.0933 23.9209 58.3306L26.3426 55.9089L32.4586 54.3792L32.8074 54.7279C33.491 55.4184 34.4205 55.8088 35.393 55.8116C35.6376 55.8116 35.8821 55.7866 36.1211 55.7366C36.6435 55.6282 37.152 55.4837 37.6674 55.3559C39.0457 59.1336 37.4688 63.4088 35.8237 66.4251C35.418 67.1726 35.4347 68.0785 35.8668 68.8107C36.2989 69.5429 37.0853 69.9944 37.9356 70C38.3844 70 38.8248 69.8722 39.2069 69.636L60.3338 56.6869C61.5551 55.9325 62.2234 54.5348 62.0456 53.1106L60.5117 40.8174V40.8188ZM55.9434 2.34535C59.1848 2.34813 62.4151 2.72882 65.5677 3.47909C66.0387 3.59302 66.4068 3.9612 66.5208 4.4322C67.6406 9.1436 67.9227 14.0162 67.3544 18.8248L51.1667 2.63712C52.752 2.44539 54.347 2.34813 55.9434 2.34535ZM15.2595 30.083C10.7287 28.5186 5.86723 30.2706 2.45768 32.1296L3.01621 33.1535L2.35209 32.0129L15.297 10.8914C15.5735 10.4496 16.0806 10.2065 16.5988 10.269L26.8261 11.5445C26.4885 11.8612 26.1425 12.1641 25.8146 12.4934C20.9073 17.4021 17.2824 23.4418 15.2581 30.0816L15.2595 30.083ZM16.9712 61.9833C15.2595 63.695 9.15312 64.7301 4.91411 65.0857C5.26702 60.8481 6.3035 54.7418 8.01661 53.0287C9.43795 51.6087 11.4512 50.9515 13.4352 51.2614L18.7371 56.5633C19.0455 58.5487 18.3897 60.5605 16.9698 61.9819L16.9712 61.9833ZM22.2731 56.6828C22.2397 56.7147 22.1883 56.7147 22.155 56.6828L13.3199 47.8477C13.2879 47.8143 13.2879 47.7615 13.3199 47.7296L15.1455 45.9039L24.1001 54.8585L22.2745 56.6841L22.2731 56.6828ZM26.105 53.565L16.4363 43.8963L17.5436 39.4655L24.039 45.9609L30.5343 52.4562L26.1036 53.5636L26.105 53.565ZM59.1126 54.7015L37.9884 67.6478L37.8717 67.5436C39.7321 64.134 41.4827 59.2726 39.9182 54.7418C46.5567 52.7175 52.5978 49.0926 57.5065 44.1852C57.8343 43.8574 58.1386 43.5114 58.4554 43.1738L59.7309 53.4038C59.7962 53.9207 59.5544 54.4264 59.1126 54.7015ZM35.6459 53.4552C35.2124 53.5372 34.765 53.3955 34.4566 53.0801L33.641 52.2645L17.7367 36.3602L16.9212 35.5447C16.6058 35.2348 16.4654 34.7888 16.546 34.3554C19.8597 18.4803 32.3822 6.1467 48.306 3.07478L66.9154 21.6842C63.8587 37.6149 51.5265 50.1457 35.6459 53.4552Z" fill="white"/>
<g clip-path="url(#clip0_464_1167)">
<path d="M53.8291 16.8133C47.5185 10.5082 37.294 10.5124 30.9876 16.8202C24.6812 23.128 24.6812 33.3539 30.9876 39.6617C37.294 45.9695 47.5185 45.9723 53.8291 39.6686C60.1299 33.3525 60.1299 23.1294 53.8291 16.8133ZM52.1799 38.0194C46.7808 43.4144 38.0304 43.4116 32.6354 38.0139C27.2391 32.6161 27.2391 23.8672 32.6354 18.4694C38.0318 13.0716 46.7808 13.0689 52.1799 18.4638C57.5707 23.8685 57.5707 32.6175 52.1799 38.0208V38.0194Z" fill="#27DAB7"/>
<path d="M50.8849 25.7842C50.7473 24.6491 50.318 23.5695 49.6386 22.6511L50.293 21.9967C50.7487 21.541 50.7487 20.8032 50.293 20.3475C49.8373 19.8918 49.0995 19.8918 48.6438 20.3475L47.9894 21.0019C47.071 20.3225 45.9901 19.8932 44.8563 19.7557C43.3961 19.5264 41.9136 20.0099 40.8688 21.0547C39.824 22.0995 39.3405 23.582 39.5697 25.0423C39.7073 26.1774 40.1366 27.2569 40.816 28.1753L36.8535 32.1378C36.006 31.0194 36.0101 29.473 36.8618 28.3587C37.3175 27.903 37.3175 27.1652 36.8618 26.7095C36.4061 26.2538 35.6683 26.2538 35.2126 26.7095C33.4356 28.4865 33.4801 31.4918 35.1654 33.8259L34.5068 34.4845C34.2123 34.7791 34.0969 35.2084 34.2053 35.6113C34.3137 36.0142 34.6277 36.3282 35.0292 36.4352C35.4308 36.5422 35.8615 36.4283 36.156 36.1337L36.8229 35.4668C37.908 36.2754 39.2196 36.7256 40.5729 36.752C41.8247 36.7784 43.0349 36.3004 43.931 35.4265C45.708 33.6495 45.665 30.6443 43.9782 28.3101L47.9477 24.3406C48.2756 24.8547 48.4868 25.4355 48.566 26.0412C48.6869 26.7943 48.4548 27.5626 47.9366 28.1225C47.4851 28.5782 47.4864 29.3132 47.9408 29.7676C48.3951 30.2219 49.1301 30.2233 49.5858 29.7717C50.6126 28.7158 51.0919 27.243 50.8849 25.7842ZM42.2818 33.7773C41.1675 34.629 39.6211 34.6332 38.5027 33.7857L42.2943 29.994C43.1585 31.1083 43.153 32.6686 42.2818 33.7773ZM42.5069 26.4844C42.179 25.9704 41.9678 25.3896 41.8886 24.7838C41.7372 24.028 41.9734 23.2472 42.518 22.7025C43.0626 22.1579 43.8435 21.9217 44.5993 22.0731C45.2051 22.1523 45.7844 22.3635 46.2999 22.6914L42.5069 26.4844Z" fill="#27DAB7"/>
</g>
<defs>
<clipPath id="clip0_464_1167">
<rect width="32.2976" height="32.3073" fill="white" transform="translate(26.2578 12.0864)"/>
</clipPath>
</defs>
</svg>
