<svg width="69" height="67" viewBox="0 0 69 67" fill="none" xmlns="http://www.w3.org/2000/svg">
<g clip-path="url(#clip0_585_563)">
<path d="M56.6537 0H12.3463C5.53896 0 0 5.54772 0 12.3658V54.6327C0 61.4523 5.53896 66.9986 12.3463 66.9986H56.6523C63.461 66.9986 68.9986 61.4508 68.9986 54.6327V12.3658C69 5.54772 63.461 0 56.6537 0ZM2.10584 12.3658C2.10584 6.70734 6.69674 2.10917 12.3463 2.10917H56.6523C62.3018 2.10917 66.8927 6.70734 66.8927 12.3658V15.4246H30.6539C30.3091 15.4246 29.9745 15.2908 29.7173 15.0563L24.2014 9.86678C23.3653 9.08555 22.2736 8.64962 21.1259 8.64962H15.1086C12.635 8.64962 10.6183 10.6696 10.6183 13.1471V14.0621C10.6183 14.8102 10.0049 15.4231 9.25937 15.4231H2.10584V12.3644V12.3658ZM56.6537 64.9009H12.3463C6.69674 64.9009 2.10584 60.3027 2.10584 54.6442V17.5337H9.25937C11.1655 17.5337 12.7255 15.9828 12.7255 14.0621V13.1471C12.7255 11.8191 13.7957 10.7473 15.1215 10.7473H21.1273C21.7407 10.7473 22.3196 10.9818 22.7649 11.3947L28.2809 16.5842C28.9273 17.187 29.7633 17.5222 30.6539 17.5222H66.9028V54.6327C66.8913 60.3027 62.3004 64.9009 56.6508 64.9009H56.6537Z" fill="white"/>
<path d="M58.6484 12.1875C60.5316 12.1875 62.0586 10.6581 62.0586 8.77198C62.0586 6.88581 60.5316 5.35645 58.6484 5.35645C56.7652 5.35645 55.2383 6.88581 55.2383 8.77198C55.2498 10.6466 56.7767 12.1875 58.6484 12.1875ZM58.6484 7.45555C59.3724 7.45555 59.9628 8.04686 59.9628 8.76191C59.9628 9.47696 59.3724 10.0783 58.6484 10.0783C57.9244 10.0783 57.3441 9.48703 57.3441 8.76191C57.3441 8.03679 57.9345 7.45555 58.6484 7.45555Z" fill="white"/>
<path d="M50.0898 12.478C51.973 12.478 53.5 10.9487 53.5 9.06251C53.5 7.17634 51.973 5.64697 50.0898 5.64697C48.2066 5.64697 46.6797 7.17634 46.6797 9.06251C46.6912 10.9487 48.2181 12.478 50.0898 12.478ZM50.0898 7.74607C50.8138 7.74607 51.4042 8.33739 51.4042 9.05244C51.4042 9.76748 50.8138 10.3689 50.0898 10.3689C49.3659 10.3689 48.7855 9.77755 48.7855 9.05244C48.7855 8.32732 49.3759 7.74607 50.0898 7.74607Z" fill="white"/>
<path d="M41.5312 12.7788C43.4144 12.7788 44.9414 11.2495 44.9414 9.36329C44.9414 7.47712 43.4144 5.94775 41.5312 5.94775C39.648 5.94775 38.1211 7.47712 38.1211 9.36329C38.1211 11.2495 39.648 12.7788 41.5312 12.7788ZM41.5312 8.04685C42.2552 8.04685 42.8456 8.63817 42.8456 9.35322C42.8456 10.0683 42.2552 10.6697 41.5312 10.6697C40.8073 10.6697 40.2269 10.0783 40.2269 9.35322C40.2269 8.6281 40.8058 8.04685 41.5312 8.04685Z" fill="white"/>
<path d="M21.06 21.4512C21.06 20.8714 20.5918 20.4023 20.0129 20.4023H7.08624C6.50735 20.4023 6.03906 20.8714 6.03906 21.4512C6.03906 22.031 6.50735 22.5 7.08624 22.5H20.0129C20.5918 22.5 21.06 22.031 21.06 21.4512Z" fill="white"/>
<path d="M21.0607 25.4365C21.0607 24.8567 20.5924 24.3877 20.0135 24.3877H12.7034C12.1245 24.3877 11.6562 24.8567 11.6562 25.4365C11.6562 26.0163 12.1245 26.4854 12.7034 26.4854H20.0135C20.5924 26.4854 21.0607 26.0163 21.0607 25.4365Z" fill="white"/>
<path d="M52.3283 25.1455L49.487 25.2678L48.9081 22.4882C48.7516 21.7285 48.1842 21.1487 47.4257 20.9818C46.6788 20.8149 45.9103 21.0825 45.442 21.6954L41.5865 26.6849C41.2303 27.1425 41.0967 27.7223 41.2188 28.292L42.1439 32.7003C42.1669 32.7895 42.1884 32.8787 42.2215 32.9679L37.4079 38.8494C36.4498 38.2019 35.2906 37.8336 34.0538 37.8336C30.6997 37.8336 27.9805 40.5686 27.9805 43.9166C27.9805 47.2645 30.7112 49.9995 34.0538 49.9995C37.3964 49.9995 40.1271 47.276 40.1271 43.9166C40.1271 42.5656 39.6818 41.3153 38.9349 40.301L43.8935 34.2411C43.9495 34.2411 44.0055 34.2526 44.0601 34.2526H44.1492L48.6395 34.0512C49.2184 34.0282 49.7542 33.7505 50.099 33.2916L53.9544 28.3021C54.4227 27.6877 54.5003 26.8849 54.144 26.2044C53.7993 25.5124 53.0853 25.0995 52.3283 25.1441V25.1455ZM38.0313 43.918C38.0313 46.1049 36.2487 47.8918 34.0638 47.8918C31.879 47.8918 30.0863 46.1063 30.0863 43.918C30.0863 41.7297 31.8689 39.9342 34.0638 39.9342C34.7993 39.9342 35.4788 40.1457 36.0691 40.5039L33.6961 43.4058C33.3284 43.8518 33.3959 44.5223 33.8412 44.8906C34.0423 45.0474 34.2764 45.1251 34.5091 45.1251C34.8094 45.1251 35.111 44.9913 35.3222 44.7453L37.5401 42.0333C37.8302 42.5915 38.0299 43.2274 38.0299 43.9194L38.0313 43.918ZM48.483 31.9536L44.1707 32.1435L43.2787 27.9136L46.9115 23.2262L47.4573 25.8275C47.6584 26.7756 48.493 27.423 49.4626 27.3784L52.1143 27.2561L48.4815 31.955L48.483 31.9536Z" fill="#27DAB7"/>
<path d="M48.7628 37.1992C48.1839 37.2323 47.7371 37.7244 47.7716 38.3042C47.7831 38.5833 47.9052 38.8293 48.0948 39.0077C48.6522 40.6033 48.9308 42.2449 48.9308 43.908C48.9308 52.1332 42.2556 58.819 34.0434 58.819C25.8312 58.819 19.156 52.1332 19.156 43.908C19.156 35.6828 25.8312 28.9971 34.0434 28.9971C34.924 28.9971 35.8491 29.0863 36.7957 29.2647C37.3645 29.3654 37.9104 28.9971 38.021 28.4273C38.1316 27.8576 37.7538 27.3109 37.185 27.2001C36.1148 26.9987 35.0676 26.8994 34.0535 26.8994C24.6936 26.8994 17.0703 34.5333 17.0703 43.9095C17.0703 53.2856 24.6921 60.9296 34.0535 60.9296C43.4149 60.9296 51.0367 53.2957 51.0367 43.9195C51.0367 41.8665 50.6574 39.835 49.9105 37.8697C49.7539 37.4338 49.231 37.1662 48.7628 37.2007V37.1992Z" fill="#27DAB7"/>
<path d="M22.7305 43.9177C22.7305 50.1675 27.8112 55.2577 34.0526 55.2577C40.294 55.2577 45.3747 50.169 45.3747 43.9177C45.3747 41.6963 44.7283 39.5425 43.503 37.6894C43.1798 37.2089 42.5334 37.0751 42.0436 37.3888C41.5638 37.7125 41.4302 38.3599 41.7434 38.8505C42.7345 40.3568 43.2588 42.1092 43.2588 43.9177C43.2588 49.0065 39.1247 53.1486 34.0425 53.1486C28.9604 53.1486 24.8162 49.0079 24.8162 43.9177C24.8162 38.8275 28.9503 34.6768 34.0425 34.6768C35.3684 34.6768 36.6612 34.9674 37.8865 35.5357C38.4108 35.7817 39.0342 35.5472 39.2798 35.022C39.5255 34.4969 39.2913 33.8725 38.767 33.6265C37.2631 32.9345 35.6686 32.5777 34.0425 32.5777C27.8141 32.5661 22.7319 37.6564 22.7319 43.9177H22.7305Z" fill="#27DAB7"/>
</g>
<defs>
<clipPath id="clip0_585_563">
<rect width="69" height="66.9986" fill="white"/>
</clipPath>
</defs>
</svg>
