<svg xmlns="http://www.w3.org/2000/svg" viewBox="0 0 64 64" width="512" height="512"><g id="_06-Content" data-name="06-Content"><path d="M9,30H25a.99974.99974,0,0,0,1-1V17a.99974.99974,0,0,0-1-1H9a.99974.99974,0,0,0-1,1V29A.99974.99974,0,0,0,9,30Zm1-12H24V28H10ZM42,36H19a1,1,0,0,1,0-2H42a1,1,0,0,1,0,2ZM8,35a.99974.99974,0,0,1,1-1h6a1,1,0,0,1,0,2H9A.99974.99974,0,0,1,8,35ZM20,46a1,1,0,0,1,0,2H9a1,1,0,0,1,0-2Zm10,0a1,1,0,0,1,0,2H24a1,1,0,0,1,0-2ZM47,30H31a1,1,0,0,1,0-2H47a1,1,0,0,1,0,2Zm3-13a.99974.99974,0,0,1-1,1H31a1,1,0,0,1,0-2H49A.99974.99974,0,0,1,50,17ZM30,23a.99974.99974,0,0,1,1-1h6a1,1,0,0,1,0,2H31A.99974.99974,0,0,1,30,23Zm19,1H41a1,1,0,0,1,0-2h8a1,1,0,0,1,0,2ZM36,42H9a1,1,0,0,1,0-2H36a1,1,0,0,1,0,2ZM8,7A1,1,0,1,1,9,8,1,1,0,0,1,8,7Zm6,0a1,1,0,1,1,1,1A1,1,0,0,1,14,7Zm6,0a1,1,0,1,1,1,1A1,1,0,0,1,20,7ZM56,47.65625V49a5.00588,5.00588,0,0,1-5,5H49.65625a1,1,0,0,1,0-2H51a3.00328,3.00328,0,0,0,3-3V47.65625a1,1,0,0,1,2,0ZM27.22363,52H7a3.00328,3.00328,0,0,1-3-3V12H54V25.06689a1,1,0,0,0,2,0V7a5.00588,5.00588,0,0,0-5-5H7A5.00588,5.00588,0,0,0,2,7V49a5.00588,5.00588,0,0,0,5,5H27.22363a1,1,0,0,0,0-2ZM7,4H51a3.00328,3.00328,0,0,1,3,3v3H4V7A3.00328,3.00328,0,0,1,7,4ZM60.25684,29.74268a5.94948,5.94948,0,0,0-8.41407,0L31.293,50.293a1.00234,1.00234,0,0,0-.251.41992l-3,10A1.00033,1.00033,0,0,0,29.28711,61.958l10-3a.99932.99932,0,0,0,.41992-.251L60.25684,38.15674a5.94831,5.94831,0,0,0,0-8.41406ZM36.91406,54.5,54.5,36.91406l2.08569,2.0857L38.99976,56.58569ZM35.5,53.08594l-2.08569-2.0857L50.99982,33.41388,53.08594,35.5Zm-3.023-.19489,4.63214,4.63214L30.49121,59.5083ZM58.84277,36.74268l-.843.843-5.58594-5.58593.843-.843a4.04371,4.04371,0,0,1,5.58593,0,3.949,3.949,0,0,1,0,5.58594Z"></path></g></svg>