<svg  width="1em" height="1em" viewBox="0 0 51 59" fill="none" xmlns="http://www.w3.org/2000/svg">
<path d="M48.7481 54.4625H46.6655V6.28283C46.6655 2.81819 43.8649 0 40.4219 0H11.278C7.83496 0 5.03435 2.81819 5.03435 6.28283V54.4625H2.95175C1.80128 54.4625 0.869141 55.4005 0.869141 56.5582C0.869141 57.7159 1.80128 58.6538 2.95175 58.6538H48.7481C49.8986 58.6538 50.8307 57.7159 50.8307 56.5582C50.8307 55.4005 49.8986 54.4625 48.7481 54.4625ZM30.013 54.4625H21.6868V46.084H30.013V54.4625ZM42.5003 54.4625H34.1741V46.084C34.1741 43.7728 32.3056 41.8926 30.0088 41.8926H21.6826C19.3859 41.8926 17.5174 43.7728 17.5174 46.084V54.4625H9.19117V6.28283C9.19117 5.12513 10.1275 4.18715 11.2738 4.18715H40.4177C41.564 4.18715 42.5003 5.12513 42.5003 6.28283V54.4625Z" fill="#29292F"/>
<path d="M21.6876 16.7568H15.4439C14.2935 16.7568 13.3613 17.6948 13.3613 18.8525C13.3613 20.0102 14.2935 20.9482 15.4439 20.9482H21.6876C22.838 20.9482 23.7702 20.0102 23.7702 18.8525C23.7702 17.6948 22.838 16.7568 21.6876 16.7568Z" fill="#27DAB7"/>
<path d="M21.6876 8.37891H15.4439C14.2935 8.37891 13.3613 9.31689 13.3613 10.4746C13.3613 11.6323 14.2935 12.5703 15.4439 12.5703H21.6876C22.838 12.5703 23.7702 11.6323 23.7702 10.4746C23.7702 9.31689 22.838 8.37891 21.6876 8.37891Z" fill="#27DAB7"/>
<path d="M21.6876 25.1353H15.4439C14.2935 25.1353 13.3613 26.0732 13.3613 27.2309C13.3613 28.3886 14.2935 29.3266 15.4439 29.3266H21.6876C22.838 29.3266 23.7702 28.3886 23.7702 27.2309C23.7702 26.0732 22.838 25.1353 21.6876 25.1353Z" fill="#27DAB7"/>
<path d="M21.6876 33.5142H15.4439C14.2935 33.5142 13.3613 34.4521 13.3613 35.6098C13.3613 36.7675 14.2935 37.7055 15.4439 37.7055H21.6876C22.838 37.7055 23.7702 36.7675 23.7702 35.6098C23.7702 34.4521 22.838 33.5142 21.6876 33.5142Z" fill="#27DAB7"/>
<path d="M36.254 25.1357H30.0103C28.8599 25.1357 27.9277 26.0737 27.9277 27.2314C27.9277 28.3891 28.8599 29.3271 30.0103 29.3271H36.254C37.4044 29.3271 38.3366 28.3891 38.3366 27.2314C38.3366 26.0737 37.4044 25.1357 36.254 25.1357Z" fill="#27DAB7"/>
<path d="M36.254 8.37891H30.0103C28.8599 8.37891 27.9277 9.31689 27.9277 10.4746C27.9277 11.6323 28.8599 12.5703 30.0103 12.5703H36.254C37.4044 12.5703 38.3366 11.6323 38.3366 10.4746C38.3366 9.31689 37.4044 8.37891 36.254 8.37891Z" fill="#27DAB7"/>
<path d="M36.254 16.7568H30.0103C28.8599 16.7568 27.9277 17.6948 27.9277 18.8525C27.9277 20.0102 28.8599 20.9482 30.0103 20.9482H36.254C37.4044 20.9482 38.3366 20.0102 38.3366 18.8525C38.3366 17.6948 37.4044 16.7568 36.254 16.7568Z" fill="#27DAB7"/>
<path d="M36.254 33.5142H30.0103C28.8599 33.5142 27.9277 34.4521 27.9277 35.6098C27.9277 36.7675 28.8599 37.7055 30.0103 37.7055H36.254C37.4044 37.7055 38.3366 36.7675 38.3366 35.6098C38.3366 34.4521 37.4044 33.5142 36.254 33.5142Z" fill="#27DAB7"/>
</svg>
