<svg  width="1em" height="1em" viewBox="0 0 66 50" fill="none" xmlns="http://www.w3.org/2000/svg">
<path d="M49.8235 6.39005C49.8235 5.68198 49.2494 5.10779 48.5412 5.10779H17.1122C16.404 5.10779 15.83 5.68198 15.83 6.39005C15.83 7.09811 16.404 7.67231 17.1122 7.67231H48.5412C49.2494 7.67231 49.8235 7.09824 49.8235 6.39005Z" fill="#FB421F"/>
<path d="M64.3695 40.1901H61.8541V4.82079C61.8541 2.16266 59.6915 0 57.0333 0H8.61847C5.96034 0 3.79768 2.16253 3.79768 4.82079V40.1901H1.28226C0.574069 40.1901 0 40.7643 0 41.4723V44.7255C0 47.634 2.36616 50 5.27446 50H60.3774C63.2857 50 65.6518 47.634 65.6518 44.7255V41.4723C65.6518 40.7641 65.0777 40.1901 64.3695 40.1901ZM6.3622 4.82079C6.3622 3.57674 7.37442 2.56452 8.61847 2.56452H57.0333C58.2775 2.56452 59.2896 3.57674 59.2896 4.82079V40.1901H39.4063C38.6982 40.1901 38.1241 40.7643 38.1241 41.4723V42.2035H27.5276V41.4723C27.5276 40.7643 26.9535 40.1901 26.2453 40.1901H6.3622V4.82079ZM63.0873 44.7255C63.0873 46.2198 61.8717 47.4355 60.3774 47.4355H5.27446C3.78024 47.4355 2.56452 46.2199 2.56452 44.7255V42.7546H24.9632V43.4857C24.9632 44.1938 25.5373 44.768 26.2455 44.768H39.4065C40.1147 44.768 40.6887 44.1938 40.6887 43.4857V42.7546H63.0873V44.7255Z" fill="#29292F"/>
</svg>
