<svg width="1em" height="1em" viewBox="0 0 60 50" fill="none" xmlns="http://www.w3.org/2000/svg">
<path fill-rule="evenodd" clip-rule="evenodd" d="M23.2932 31.1716C24.0299 30.4216 25.0292 30 26.0711 30H33.9283C34.9703 30 35.9696 30.4216 36.7062 31.1716C37.4428 31.9216 37.8569 32.9391 37.8569 34V48C37.8569 49.1046 36.9774 50 35.8926 50C34.8077 50 33.9283 49.1046 33.9283 48V34L26.0712 34L26.0711 48C26.0711 49.1046 25.1917 50 24.1069 50C23.022 50 22.1426 49.1046 22.1426 48V34C22.1426 32.9391 22.5566 31.9216 23.2932 31.1716Z" fill="#FFDC26"/>
<path fill-rule="evenodd" clip-rule="evenodd" d="M27.2728 1.04195C28.018 0.371516 28.9896 0 29.9974 0C31.0052 0 31.9767 0.371516 32.722 1.04195L32.7491 1.06675L52.9756 19.9406C53.385 20.3125 53.7128 20.764 53.9381 21.2673C53.938 21.2671 53.9382 21.2675 53.9381 21.2673C54.1661 21.7764 54.2843 22.3276 54.2843 22.8855V48C54.2843 49.1046 53.3782 50 52.2605 50C51.1428 50 50.2367 49.1046 50.2367 48L50.2367 22.8859L50.2083 22.8597L29.9974 4.00043L30.0246 3.97503L30.0223 3.97263L31.3596 2.52089L29.9974 3.94655L28.6352 2.52089L29.9725 3.97263L29.9702 3.97503L29.9974 4.00043L9.78641 22.8597L9.76054 22.8834L9.76051 48C9.76051 49.1046 8.85442 50 7.7367 50C6.61898 50 5.71289 49.1046 5.71289 48V22.8863C5.71289 22.8859 5.71289 22.8867 5.71289 22.8863C5.71261 22.3298 5.82978 21.779 6.05669 21.2701C6.28124 20.7669 6.6087 20.3141 7.01824 19.9414L7.00753 19.9514L8.39697 21.4056L7.03365 19.9275C7.02851 19.9321 7.02337 19.9368 7.01824 19.9414L27.2457 1.06675L27.2728 1.04195Z" fill="#29292F"/>
<path fill-rule="evenodd" clip-rule="evenodd" d="M0 47.8571C0 46.6736 0.89543 45.7142 2 45.7142H58C59.1046 45.7142 60 46.6736 60 47.8571C60 49.0406 59.1046 49.9999 58 49.9999H2C0.89543 49.9999 0 49.0406 0 47.8571Z" fill="#29292F"/>
</svg>
