<svg  width="1em" height="1em"  viewBox="0 0 51 50" fill="none" xmlns="http://www.w3.org/2000/svg">
<path d="M0.869141 27.0567C0.869141 25.7606 0.869141 24.4639 0.869141 23.1678C0.957406 22.9067 1.01792 22.6317 1.13893 22.3867C1.70128 21.2478 2.64222 20.5822 3.85906 20.2994C5.14641 20 6.43875 19.7228 7.72997 19.4411C7.89762 19.4044 7.98922 19.3333 8.05583 19.1606C8.34617 18.4106 8.65426 17.6672 8.97235 16.9289C9.04618 16.7583 9.04729 16.6356 8.94904 16.4739C8.19684 15.2311 7.43187 13.9956 6.72075 12.7289C6.44874 12.2444 6.24723 11.7006 6.12066 11.1583C5.8653 10.0656 6.11844 9.095 6.96223 8.29722C7.64782 7.64945 8.30231 6.96778 8.96736 6.29833C9.32042 5.94278 9.73066 5.68556 10.2142 5.55111C11.3738 5.22833 12.4513 5.44944 13.4528 6.07556C14.598 6.79056 15.7344 7.52111 16.8679 8.255C17.0528 8.375 17.191 8.37611 17.3942 8.285C18.2202 7.91556 19.0557 7.56556 19.8962 7.23056C20.091 7.15278 20.1904 7.05944 20.2392 6.85611C20.549 5.58 20.8532 4.30167 21.193 3.03333C21.5838 1.57222 22.3165 0.397222 23.9059 0C25.201 0 26.4967 0 27.7918 0C28.0788 0.0983333 28.383 0.163333 28.6494 0.301111C29.758 0.872778 30.3986 1.81056 30.674 3.00889C30.9749 4.31611 31.2658 5.62556 31.5494 6.93667C31.5866 7.10889 31.671 7.175 31.822 7.23667C32.6264 7.56445 33.4285 7.89778 34.2229 8.24833C34.3978 8.32556 34.5177 8.32333 34.6759 8.22111C35.7795 7.50889 36.8848 6.79833 38 6.10389C38.3037 5.915 38.6301 5.74111 38.9693 5.63333C40.3743 5.18722 41.6467 5.35444 42.7108 6.48056C43.3337 7.13944 43.9871 7.77 44.6338 8.405C45.1701 8.93167 45.4421 9.56889 45.461 10.3156C45.4837 11.2139 45.2023 12.0294 44.7515 12.7906C44.0581 13.9611 43.3581 15.1272 42.6514 16.29C42.5571 16.445 42.5621 16.5622 42.6315 16.7233C42.979 17.53 43.3193 18.3394 43.6423 19.1561C43.7101 19.3272 43.8006 19.4 43.9688 19.4367C45.2694 19.72 46.569 20.01 47.8685 20.2983C48.5802 20.4561 49.1964 20.7961 49.7404 21.2783C50.315 21.7872 50.6464 22.4339 50.8296 23.1672V27.0561C50.6619 27.4433 50.5504 27.8694 50.315 28.21C49.7243 29.0639 48.8428 29.5111 47.8613 29.7667C46.5379 30.1111 45.2106 30.4411 43.8827 30.7694C43.7117 30.8117 43.6279 30.8922 43.5619 31.0594C43.2693 31.7983 42.9629 32.5322 42.6426 33.26C42.5626 33.4417 42.5626 33.5722 42.6664 33.7422C43.3498 34.8639 44.0359 35.985 44.6915 37.1228C44.9341 37.5439 45.1495 37.9956 45.2889 38.4594C45.6242 39.5756 45.5642 40.6467 44.6993 41.5378C43.971 42.2878 43.2227 43.0178 42.481 43.755C42.1046 44.1294 41.6544 44.3761 41.1393 44.4978C40.0762 44.7489 39.0753 44.5606 38.1566 43.9967C36.9825 43.2761 35.8261 42.525 34.6681 41.7789C34.5083 41.6761 34.3872 41.675 34.214 41.7517C33.4452 42.0917 32.6725 42.4228 31.8903 42.7306C31.691 42.8089 31.6033 42.9083 31.5594 43.11C31.273 44.4294 30.986 45.7489 30.6784 47.0633C30.437 48.0967 29.8857 48.9422 28.9831 49.5083C28.6239 49.7333 28.1903 49.84 27.7912 50H23.9608C23.5506 49.8194 23.0959 49.7006 22.7384 49.4461C21.8858 48.8389 21.4555 47.9367 21.2029 46.945C20.8787 45.6722 20.559 44.3983 20.2492 43.1222C20.2037 42.935 20.1121 42.8561 19.94 42.7867C19.0835 42.4411 18.2302 42.0861 17.3853 41.7128C17.1938 41.6278 17.0634 41.6178 16.8829 41.7344C15.7421 42.4744 14.5986 43.21 13.4434 43.9272C13.1242 44.125 12.7766 44.3 12.4186 44.4072C11.2067 44.7694 10.0404 44.7022 9.06728 43.8006C8.26012 43.0528 7.50237 42.2511 6.72908 41.4672C6.36769 41.1006 6.15952 40.6506 6.0768 40.1433C5.90693 39.1039 6.1906 38.1583 6.70743 37.275C7.44575 36.0133 8.20405 34.7633 8.9618 33.5128C9.04896 33.3689 9.0484 33.2611 8.98234 33.1078C8.68924 32.4289 8.40779 31.745 8.13633 31.0567C8.07193 30.8933 7.99144 30.8083 7.81546 30.765C6.50481 30.4444 5.19193 30.13 3.8896 29.7778C2.43294 29.385 1.25218 28.6578 0.869141 27.0567ZM11.416 8.04C11.2145 8.14833 10.9947 8.21278 10.8476 8.35389C10.1864 8.98833 9.5408 9.63833 8.90463 10.2978C8.81081 10.395 8.72643 10.5922 8.76029 10.7067C8.87409 11.0922 8.99733 11.4883 9.19829 11.8328C10.0987 13.375 11.0247 14.9028 11.9501 16.4306C12.0572 16.6072 12.0772 16.7411 11.9745 16.9322C11.2378 18.3061 10.6327 19.7361 10.2219 21.2428C10.1598 21.47 10.0515 21.5706 9.8217 21.6206C8.12356 21.9883 6.42709 22.3661 4.73284 22.7539C4.50412 22.8061 4.27874 22.9106 4.07612 23.0317C3.77135 23.2139 3.62868 23.4822 3.63979 23.865C3.66532 24.725 3.65644 25.5872 3.64256 26.4478C3.63868 26.6828 3.71417 26.8528 3.91069 26.95C4.1988 27.0928 4.48802 27.2522 4.79556 27.3322C6.4776 27.7694 8.16297 28.1928 9.85279 28.6C10.1165 28.6633 10.2375 28.7806 10.308 29.0311C10.7038 30.4356 11.2778 31.7683 11.9623 33.0539C12.0639 33.2444 12.0666 33.3889 11.9495 33.5817C11.023 35.1083 10.1004 36.6383 9.19829 38.18C9.0051 38.5094 8.88797 38.8861 8.75807 39.2489C8.6909 39.4361 8.76751 39.5956 8.91739 39.7422C9.53858 40.3511 10.157 40.9639 10.7565 41.5933C11.0113 41.8611 11.2983 41.9428 11.6331 41.8517C11.8618 41.7894 12.0961 41.7089 12.2948 41.5839C13.8292 40.6178 15.3574 39.6422 16.8813 38.6594C17.055 38.5472 17.1794 38.5472 17.3542 38.6467C18.832 39.4856 20.3808 40.1594 22.0218 40.6089C22.2377 40.6678 22.3321 40.7783 22.3848 40.9944C22.7895 42.6478 23.1986 44.3006 23.6283 45.9472C23.7182 46.2911 23.8875 46.6161 24.0402 46.94C24.1346 47.14 24.31 47.2111 24.542 47.2078C25.4025 47.1956 26.2635 47.1844 27.1228 47.2111C27.5186 47.2233 27.7857 47.0656 27.9705 46.7522C28.086 46.5561 28.1837 46.3383 28.2336 46.1172C28.6283 44.3856 29.0125 42.6511 29.3905 40.9161C29.4266 40.7494 29.4938 40.6589 29.657 40.6128C31.258 40.1622 32.7763 39.5111 34.2279 38.7028C34.4067 38.6033 34.5349 38.6178 34.7037 38.7272C36.1809 39.68 37.6597 40.63 39.1502 41.5617C39.394 41.7139 39.6876 41.8028 39.9702 41.8706C40.2311 41.9333 40.4681 41.85 40.6719 41.6406C41.298 40.9972 41.9353 40.365 42.5782 39.7383C42.7364 39.5844 42.8097 39.4189 42.7342 39.2183C42.5982 38.8572 42.4816 38.4806 42.2884 38.1511C41.4185 36.6661 40.527 35.1933 39.6354 33.7211C39.5383 33.5606 39.5233 33.4378 39.616 33.2694C40.3665 31.9028 40.9822 30.4772 41.4091 28.9756C41.474 28.7467 41.5989 28.6611 41.8204 28.6067C43.5086 28.1939 45.1956 27.7744 46.8771 27.3372C47.1935 27.255 47.4922 27.0928 47.7886 26.9472C47.9862 26.85 48.0584 26.6778 48.0562 26.4439C48.0462 25.5828 48.0406 24.7211 48.0712 23.8611C48.085 23.4656 47.9291 23.1972 47.6148 23.0111C47.4272 22.9 47.219 22.8033 47.0075 22.755C45.3044 22.3661 43.599 21.9872 41.8926 21.6144C41.6805 21.5683 41.559 21.4906 41.4979 21.2656C41.071 19.6856 40.4332 18.1894 39.6438 16.7583C39.5388 16.5678 39.5599 16.4322 39.6676 16.2539C40.5503 14.7978 41.4307 13.34 42.2912 11.8706C42.4843 11.54 42.6054 11.165 42.7419 10.8044C42.8208 10.5967 42.7558 10.4211 42.5882 10.2572C41.9392 9.62389 41.3114 8.96833 40.6546 8.34333C40.5225 8.21722 40.2849 8.10389 40.1201 8.13111C39.7742 8.18833 39.4089 8.28444 39.1147 8.46667C37.6275 9.38611 36.1592 10.3361 34.6887 11.2817C34.5477 11.3722 34.4389 11.3883 34.2879 11.3039C32.8196 10.4883 31.2885 9.81944 29.6692 9.36389C29.4943 9.315 29.4211 9.22389 29.3828 9.04556C29.0058 7.31 28.6278 5.57444 28.2259 3.84444C28.1615 3.56722 27.9949 3.305 27.8389 3.06C27.7035 2.84778 27.4837 2.765 27.2167 2.76889C26.3284 2.78111 25.4402 2.78222 24.5526 2.76778C24.3083 2.76389 24.1268 2.84056 24.028 3.04722C23.8737 3.37056 23.7077 3.69667 23.6189 4.04056C23.1897 5.69722 22.7817 7.35944 22.3765 9.02167C22.3287 9.21778 22.2399 9.315 22.0462 9.36889C20.3986 9.82722 18.8387 10.4989 17.3553 11.3472C17.1738 11.4511 17.0467 11.4233 16.8802 11.3167C15.363 10.3406 13.8442 9.36667 12.3148 8.41C12.0561 8.24833 11.7441 8.17222 11.4138 8.03944L11.416 8.04Z" fill="black"/>
<path d="M25.896 14.9909C31.4345 15.0159 35.9255 19.5259 35.8938 25.0309C35.8622 30.552 31.3329 35.0425 25.8199 35.0003C20.1904 34.9575 15.7443 30.3348 15.8576 24.7886C15.9692 19.3342 20.4596 14.9692 25.8954 14.9903L25.896 14.9909ZM33.1643 25.0309C33.1837 21.067 29.9384 17.7925 25.9626 17.7648C21.9312 17.7364 18.6438 20.9631 18.6188 24.9725C18.5938 28.9875 21.8419 32.2636 25.8632 32.2798C29.8879 32.2959 33.1437 29.0631 33.1637 25.0309H33.1643Z" fill="#9F26FF"/>
</svg>
