<svg  width="1em" height="1em" viewBox="0 0 84 65" fill="none" xmlns="http://www.w3.org/2000/svg">
<path d="M63.3602 47.7307C67.612 43.3054 71.5574 39.1984 75.3572 35.239C78.2454 38.228 80.8654 40.9375 83.3246 43.484C76.9813 49.9511 70.2397 56.8219 63.3066 63.8791C56.5343 56.8918 49.5782 49.7182 42.4536 42.3738C35.168 49.8502 28.2272 56.9772 21.3707 64.0111C14.4299 56.9151 7.70363 50.0443 1.11523 43.3054C3.48246 40.8832 6.11781 38.1969 8.90639 35.3399C12.7292 39.3227 16.7052 43.4684 20.7655 47.6996C28.0051 40.2621 34.9459 33.135 42.0782 25.8062C49.3254 33.2748 56.2968 40.4484 63.3602 47.7152V47.7307Z" fill="white"/>
<path d="M21.3707 38.2981C14.3073 31.0779 7.58102 24.1915 0.916016 17.3673C3.40581 14.8286 6.04117 12.1268 8.83741 9.27756C12.7904 13.369 16.7818 17.507 20.9034 21.777C28.0587 14.4171 34.9995 7.29006 42.0935 0C49.3101 7.41428 56.2815 14.5801 63.4061 21.909C67.7269 17.4527 71.7336 13.3224 75.7172 9.21545C78.4828 12.0958 81.0722 14.782 83.4854 17.2974C76.9277 23.9664 70.1401 30.8605 63.2376 37.8866C56.5266 30.9925 49.5935 23.8654 42.4995 16.5754C35.2829 23.9897 28.3191 31.1555 21.3707 38.2981Z" fill="white"/>
</svg>
